ISO-10303-21;
HEADER;
/* Generated by software containing ST-Developer
 * from STEP Tools, Inc. (www.steptools.com) 
 */
/* OPTION: using custom renumber hook */

FILE_DESCRIPTION(
/* description */ ('STEP AP242 Edition 2',
'CAx-IF Rec.Pracs.---Representation and Presentation of Product Manufa
cturing Information (PMI)---4.0---2014-10-13',
'CAx-IF Rec.Pracs.---3D Tessellated Geometry---0.4---2014-09-14','2;1',
'CAx-IF Rec.Pracs.---User Defined Attributes---1.5---2016-08-15'),
/* implementation_level */ '2;1');

FILE_NAME(
/* name */ 'fb2f80eb-f549-4005-901a-5dd9145afa87',
/* time_stamp */ '2026-05-14T17:48:32Z',
/* author */ (''),
/* organization */ (''),
/* preprocessor_version */ 'ST-DEVELOPER v20',
/* originating_system */ 'ONSHAPE BY PTC INC, 1.214',
/* authorisation */ '  ');

FILE_SCHEMA (('AP242_MANAGED_MODEL_BASED_3D_ENGINEERING_MIM_LF { 1 0 10303 442 3 1 4 }'));
ENDSEC;

DATA;
#10=SHAPE_REPRESENTATION_RELATIONSHIP('','',#1038,#11);
#11=ADVANCED_BREP_SHAPE_REPRESENTATION('',(#1036),#1823);
#12=SPHERICAL_SURFACE('',#1131,0.0005);
#13=SPHERICAL_SURFACE('',#1142,0.0005);
#14=SPHERICAL_SURFACE('',#1144,0.0005);
#15=SPHERICAL_SURFACE('',#1150,0.0005);
#16=TOROIDAL_SURFACE('',#1126,0.0079,0.0005);
#17=TOROIDAL_SURFACE('',#1127,0.0104,0.0005);
#18=TOROIDAL_SURFACE('',#1128,0.0104,0.0005);
#19=TOROIDAL_SURFACE('',#1153,0.029975,0.0005);
#20=TOROIDAL_SURFACE('',#1154,0.029975,0.0005);
#21=TOROIDAL_SURFACE('',#1168,0.004,0.0005);
#22=TOROIDAL_SURFACE('',#1169,0.004,0.0005);
#23=CYLINDRICAL_SURFACE('',#1052,0.0259);
#24=CYLINDRICAL_SURFACE('',#1059,0.030475);
#25=CYLINDRICAL_SURFACE('',#1071,0.00825);
#26=CYLINDRICAL_SURFACE('',#1073,0.0033);
#27=CYLINDRICAL_SURFACE('',#1079,0.00825);
#28=CYLINDRICAL_SURFACE('',#1081,0.0033);
#29=CYLINDRICAL_SURFACE('',#1089,0.0084);
#30=CYLINDRICAL_SURFACE('',#1094,0.0084);
#31=CYLINDRICAL_SURFACE('',#1104,0.0052);
#32=CYLINDRICAL_SURFACE('',#1108,0.0052);
#33=CYLINDRICAL_SURFACE('',#1112,0.0042);
#34=CYLINDRICAL_SURFACE('',#1116,0.0042);
#35=CYLINDRICAL_SURFACE('',#1120,0.003);
#36=CYLINDRICAL_SURFACE('',#1123,0.003);
#37=CYLINDRICAL_SURFACE('',#1129,0.0005);
#38=CYLINDRICAL_SURFACE('',#1134,0.0005);
#39=CYLINDRICAL_SURFACE('',#1136,0.0005);
#40=CYLINDRICAL_SURFACE('',#1138,0.0005);
#41=CYLINDRICAL_SURFACE('',#1140,0.0005);
#42=CYLINDRICAL_SURFACE('',#1146,0.0005);
#43=CYLINDRICAL_SURFACE('',#1148,0.0005);
#44=CYLINDRICAL_SURFACE('',#1152,0.0005);
#45=CYLINDRICAL_SURFACE('',#1156,0.0073);
#46=CYLINDRICAL_SURFACE('',#1158,0.0073);
#47=CYLINDRICAL_SURFACE('',#1162,0.0045);
#48=CYLINDRICAL_SURFACE('',#1164,0.0045);
#49=B_SPLINE_CURVE_WITH_KNOTS('',3,(#1519,#1520,#1521,#1522),
 .UNSPECIFIED.,.F.,.F.,(4,4),(0.,0.000790918026465016),.UNSPECIFIED.);
#50=B_SPLINE_CURVE_WITH_KNOTS('',3,(#1526,#1527,#1528,#1529),
 .UNSPECIFIED.,.F.,.F.,(4,4),(0.,0.000790929482594645),.UNSPECIFIED.);
#51=B_SPLINE_CURVE_WITH_KNOTS('',3,(#1555,#1556,#1557,#1558),
 .UNSPECIFIED.,.F.,.F.,(4,4),(0.,0.000790918026464964),.UNSPECIFIED.);
#52=B_SPLINE_CURVE_WITH_KNOTS('',3,(#1562,#1563,#1564,#1565),
 .UNSPECIFIED.,.F.,.F.,(4,4),(0.,0.00079092948259469),.UNSPECIFIED.);
#53=B_SPLINE_CURVE_WITH_KNOTS('',3,(#1586,#1587,#1588,#1589,#1590),
 .UNSPECIFIED.,.F.,.F.,(4,1,4),(0.,0.000526127356461413,0.00105225471292283),
 .UNSPECIFIED.);
#54=B_SPLINE_CURVE_WITH_KNOTS('',3,(#1594,#1595,#1596,#1597,#1598),
 .UNSPECIFIED.,.F.,.F.,(4,1,4),(0.,0.000522795370163265,0.00104559074032653),
 .UNSPECIFIED.);
#55=B_SPLINE_CURVE_WITH_KNOTS('',3,(#1613,#1614,#1615,#1616,#1617),
 .UNSPECIFIED.,.F.,.F.,(4,1,4),(0.,0.000463555037492696,0.000927110074985392),
 .UNSPECIFIED.);
#56=B_SPLINE_CURVE_WITH_KNOTS('',3,(#1621,#1622,#1623,#1624,#1625),
 .UNSPECIFIED.,.F.,.F.,(4,1,4),(0.,0.000463097061225934,0.000926194122451869),
 .UNSPECIFIED.);
#57=B_SPLINE_CURVE_WITH_KNOTS('',3,(#1680,#1681,#1682,#1683,#1684),
 .UNSPECIFIED.,.F.,.F.,(4,1,4),(0.,0.000466848241370398,0.000933696482740796),
 .UNSPECIFIED.);
#58=B_SPLINE_CURVE_WITH_KNOTS('',3,(#1692,#1693,#1694,#1695,#1696),
 .UNSPECIFIED.,.F.,.F.,(4,1,4),(0.,0.000469328556243071,0.000938657112486141),
 .UNSPECIFIED.);
#59=LINE('',#1503,#119);
#60=LINE('',#1505,#120);
#61=LINE('',#1507,#121);
#62=LINE('',#1511,#122);
#63=LINE('',#1513,#123);
#64=LINE('',#1515,#124);
#65=LINE('',#1517,#125);
#66=LINE('',#1524,#126);
#67=LINE('',#1531,#127);
#68=LINE('',#1532,#128);
#69=LINE('',#1536,#129);
#70=LINE('',#1540,#130);
#71=LINE('',#1542,#131);
#72=LINE('',#1544,#132);
#73=LINE('',#1548,#133);
#74=LINE('',#1552,#134);
#75=LINE('',#1553,#135);
#76=LINE('',#1560,#136);
#77=LINE('',#1567,#137);
#78=LINE('',#1572,#138);
#79=LINE('',#1576,#139);
#80=LINE('',#1580,#140);
#81=LINE('',#1583,#141);
#82=LINE('',#1600,#142);
#83=LINE('',#1606,#143);
#84=LINE('',#1611,#144);
#85=LINE('',#1627,#145);
#86=LINE('',#1631,#146);
#87=LINE('',#1633,#147);
#88=LINE('',#1637,#148);
#89=LINE('',#1638,#149);
#90=LINE('',#1642,#150);
#91=LINE('',#1648,#151);
#92=LINE('',#1650,#152);
#93=LINE('',#1652,#153);
#94=LINE('',#1659,#154);
#95=LINE('',#1662,#155);
#96=LINE('',#1664,#156);
#97=LINE('',#1666,#157);
#98=LINE('',#1668,#158);
#99=LINE('',#1676,#159);
#100=LINE('',#1679,#160);
#101=LINE('',#1685,#161);
#102=LINE('',#1687,#162);
#103=LINE('',#1689,#163);
#104=LINE('',#1691,#164);
#105=LINE('',#1698,#165);
#106=LINE('',#1700,#166);
#107=LINE('',#1702,#167);
#108=LINE('',#1704,#168);
#109=LINE('',#1707,#169);
#110=LINE('',#1708,#170);
#111=LINE('',#1710,#171);
#112=LINE('',#1713,#172);
#113=LINE('',#1715,#173);
#114=LINE('',#1717,#174);
#115=LINE('',#1804,#175);
#116=LINE('',#1806,#176);
#117=LINE('',#1808,#177);
#118=LINE('',#1810,#178);
#119=VECTOR('',#1182,1.);
#120=VECTOR('',#1183,1.);
#121=VECTOR('',#1184,1.);
#122=VECTOR('',#1187,1.);
#123=VECTOR('',#1188,1.);
#124=VECTOR('',#1189,1.);
#125=VECTOR('',#1192,1.);
#126=VECTOR('',#1193,1.);
#127=VECTOR('',#1194,1.);
#128=VECTOR('',#1195,1.);
#129=VECTOR('',#1198,1.);
#130=VECTOR('',#1201,1.);
#131=VECTOR('',#1204,1.);
#132=VECTOR('',#1205,1.);
#133=VECTOR('',#1208,1.);
#134=VECTOR('',#1211,1.);
#135=VECTOR('',#1212,1.);
#136=VECTOR('',#1213,1.);
#137=VECTOR('',#1216,1.);
#138=VECTOR('',#1219,1.);
#139=VECTOR('',#1222,1.);
#140=VECTOR('',#1225,1.);
#141=VECTOR('',#1228,1.);
#142=VECTOR('',#1231,1.);
#143=VECTOR('',#1238,1.);
#144=VECTOR('',#1241,1.);
#145=VECTOR('',#1246,1.);
#146=VECTOR('',#1249,1.);
#147=VECTOR('',#1252,1.);
#148=VECTOR('',#1255,1.);
#149=VECTOR('',#1256,1.);
#150=VECTOR('',#1259,1.);
#151=VECTOR('',#1266,1.);
#152=VECTOR('',#1267,1.);
#153=VECTOR('',#1270,1.);
#154=VECTOR('',#1279,1.);
#155=VECTOR('',#1284,1.);
#156=VECTOR('',#1285,1.);
#157=VECTOR('',#1288,1.);
#158=VECTOR('',#1289,1.);
#159=VECTOR('',#1302,1.);
#160=VECTOR('',#1303,1.);
#161=VECTOR('',#1304,1.);
#162=VECTOR('',#1307,1.);
#163=VECTOR('',#1308,1.);
#164=VECTOR('',#1309,1.);
#165=VECTOR('',#1312,1.);
#166=VECTOR('',#1313,1.);
#167=VECTOR('',#1314,1.);
#168=VECTOR('',#1317,1.);
#169=VECTOR('',#1318,1.);
#170=VECTOR('',#1319,1.);
#171=VECTOR('',#1322,1.);
#172=VECTOR('',#1323,1.);
#173=VECTOR('',#1324,1.);
#174=VECTOR('',#1325,1.);
#175=VECTOR('',#1460,1.);
#176=VECTOR('',#1463,1.);
#177=VECTOR('',#1466,1.);
#178=VECTOR('',#1469,1.);
#179=ORIENTED_EDGE('',*,*,#443,.T.);
#180=ORIENTED_EDGE('',*,*,#444,.T.);
#181=ORIENTED_EDGE('',*,*,#445,.T.);
#182=ORIENTED_EDGE('',*,*,#446,.F.);
#183=ORIENTED_EDGE('',*,*,#447,.F.);
#184=ORIENTED_EDGE('',*,*,#448,.F.);
#185=ORIENTED_EDGE('',*,*,#449,.T.);
#186=ORIENTED_EDGE('',*,*,#450,.F.);
#187=ORIENTED_EDGE('',*,*,#451,.T.);
#188=ORIENTED_EDGE('',*,*,#452,.T.);
#189=ORIENTED_EDGE('',*,*,#453,.F.);
#190=ORIENTED_EDGE('',*,*,#451,.F.);
#191=ORIENTED_EDGE('',*,*,#454,.T.);
#192=ORIENTED_EDGE('',*,*,#455,.T.);
#193=ORIENTED_EDGE('',*,*,#456,.F.);
#194=ORIENTED_EDGE('',*,*,#457,.T.);
#195=ORIENTED_EDGE('',*,*,#458,.T.);
#196=ORIENTED_EDGE('',*,*,#449,.F.);
#197=ORIENTED_EDGE('',*,*,#459,.T.);
#198=ORIENTED_EDGE('',*,*,#460,.T.);
#199=ORIENTED_EDGE('',*,*,#461,.T.);
#200=ORIENTED_EDGE('',*,*,#462,.T.);
#201=ORIENTED_EDGE('',*,*,#463,.F.);
#202=ORIENTED_EDGE('',*,*,#464,.F.);
#203=ORIENTED_EDGE('',*,*,#453,.T.);
#204=ORIENTED_EDGE('',*,*,#465,.T.);
#205=ORIENTED_EDGE('',*,*,#466,.F.);
#206=ORIENTED_EDGE('',*,*,#467,.F.);
#207=ORIENTED_EDGE('',*,*,#468,.F.);
#208=ORIENTED_EDGE('',*,*,#469,.F.);
#209=ORIENTED_EDGE('',*,*,#447,.T.);
#210=ORIENTED_EDGE('',*,*,#470,.F.);
#211=ORIENTED_EDGE('',*,*,#471,.T.);
#212=ORIENTED_EDGE('',*,*,#472,.T.);
#213=ORIENTED_EDGE('',*,*,#473,.T.);
#214=ORIENTED_EDGE('',*,*,#474,.F.);
#215=ORIENTED_EDGE('',*,*,#475,.T.);
#216=ORIENTED_EDGE('',*,*,#476,.T.);
#217=ORIENTED_EDGE('',*,*,#477,.T.);
#218=ORIENTED_EDGE('',*,*,#478,.F.);
#219=ORIENTED_EDGE('',*,*,#479,.T.);
#220=ORIENTED_EDGE('',*,*,#480,.T.);
#221=ORIENTED_EDGE('',*,*,#481,.T.);
#222=ORIENTED_EDGE('',*,*,#482,.F.);
#223=ORIENTED_EDGE('',*,*,#483,.T.);
#224=ORIENTED_EDGE('',*,*,#484,.T.);
#225=ORIENTED_EDGE('',*,*,#485,.T.);
#226=ORIENTED_EDGE('',*,*,#486,.T.);
#227=ORIENTED_EDGE('',*,*,#487,.F.);
#228=ORIENTED_EDGE('',*,*,#488,.T.);
#229=ORIENTED_EDGE('',*,*,#489,.F.);
#230=ORIENTED_EDGE('',*,*,#490,.T.);
#231=ORIENTED_EDGE('',*,*,#491,.T.);
#232=ORIENTED_EDGE('',*,*,#492,.T.);
#233=ORIENTED_EDGE('',*,*,#493,.F.);
#234=ORIENTED_EDGE('',*,*,#494,.T.);
#235=ORIENTED_EDGE('',*,*,#495,.T.);
#236=ORIENTED_EDGE('',*,*,#496,.T.);
#237=ORIENTED_EDGE('',*,*,#497,.F.);
#238=ORIENTED_EDGE('',*,*,#487,.T.);
#239=ORIENTED_EDGE('',*,*,#477,.F.);
#240=ORIENTED_EDGE('',*,*,#498,.T.);
#241=ORIENTED_EDGE('',*,*,#499,.F.);
#242=ORIENTED_EDGE('',*,*,#500,.F.);
#243=ORIENTED_EDGE('',*,*,#481,.F.);
#244=ORIENTED_EDGE('',*,*,#501,.T.);
#245=ORIENTED_EDGE('',*,*,#502,.F.);
#246=ORIENTED_EDGE('',*,*,#503,.F.);
#247=ORIENTED_EDGE('',*,*,#504,.T.);
#248=ORIENTED_EDGE('',*,*,#505,.T.);
#249=ORIENTED_EDGE('',*,*,#503,.T.);
#250=ORIENTED_EDGE('',*,*,#506,.F.);
#251=ORIENTED_EDGE('',*,*,#507,.F.);
#252=ORIENTED_EDGE('',*,*,#478,.T.);
#253=ORIENTED_EDGE('',*,*,#502,.T.);
#254=ORIENTED_EDGE('',*,*,#508,.F.);
#255=ORIENTED_EDGE('',*,*,#509,.F.);
#256=ORIENTED_EDGE('',*,*,#506,.T.);
#257=ORIENTED_EDGE('',*,*,#510,.T.);
#258=ORIENTED_EDGE('',*,*,#504,.F.);
#259=ORIENTED_EDGE('',*,*,#501,.F.);
#260=ORIENTED_EDGE('',*,*,#480,.F.);
#261=ORIENTED_EDGE('',*,*,#511,.T.);
#262=ORIENTED_EDGE('',*,*,#508,.T.);
#263=ORIENTED_EDGE('',*,*,#510,.F.);
#264=ORIENTED_EDGE('',*,*,#479,.F.);
#265=ORIENTED_EDGE('',*,*,#507,.T.);
#266=ORIENTED_EDGE('',*,*,#509,.T.);
#267=ORIENTED_EDGE('',*,*,#511,.F.);
#268=ORIENTED_EDGE('',*,*,#498,.F.);
#269=ORIENTED_EDGE('',*,*,#476,.F.);
#270=ORIENTED_EDGE('',*,*,#512,.T.);
#271=ORIENTED_EDGE('',*,*,#513,.T.);
#272=ORIENTED_EDGE('',*,*,#500,.T.);
#273=ORIENTED_EDGE('',*,*,#514,.F.);
#274=ORIENTED_EDGE('',*,*,#515,.F.);
#275=ORIENTED_EDGE('',*,*,#474,.T.);
#276=ORIENTED_EDGE('',*,*,#499,.T.);
#277=ORIENTED_EDGE('',*,*,#513,.F.);
#278=ORIENTED_EDGE('',*,*,#516,.F.);
#279=ORIENTED_EDGE('',*,*,#514,.T.);
#280=ORIENTED_EDGE('',*,*,#517,.T.);
#281=ORIENTED_EDGE('',*,*,#505,.F.);
#282=ORIENTED_EDGE('',*,*,#512,.F.);
#283=ORIENTED_EDGE('',*,*,#475,.F.);
#284=ORIENTED_EDGE('',*,*,#515,.T.);
#285=ORIENTED_EDGE('',*,*,#516,.T.);
#286=ORIENTED_EDGE('',*,*,#517,.F.);
#287=ORIENTED_EDGE('',*,*,#518,.T.);
#288=ORIENTED_EDGE('',*,*,#519,.T.);
#289=ORIENTED_EDGE('',*,*,#482,.T.);
#290=ORIENTED_EDGE('',*,*,#497,.T.);
#291=ORIENTED_EDGE('',*,*,#520,.T.);
#292=ORIENTED_EDGE('',*,*,#489,.T.);
#293=ORIENTED_EDGE('',*,*,#521,.T.);
#294=ORIENTED_EDGE('',*,*,#486,.F.);
#295=ORIENTED_EDGE('',*,*,#522,.T.);
#296=ORIENTED_EDGE('',*,*,#523,.T.);
#297=ORIENTED_EDGE('',*,*,#524,.T.);
#298=ORIENTED_EDGE('',*,*,#491,.F.);
#299=ORIENTED_EDGE('',*,*,#525,.T.);
#300=ORIENTED_EDGE('',*,*,#495,.F.);
#301=ORIENTED_EDGE('',*,*,#484,.F.);
#302=ORIENTED_EDGE('',*,*,#526,.T.);
#303=ORIENTED_EDGE('',*,*,#527,.T.);
#304=ORIENTED_EDGE('',*,*,#528,.T.);
#305=ORIENTED_EDGE('',*,*,#529,.T.);
#306=ORIENTED_EDGE('',*,*,#530,.T.);
#307=ORIENTED_EDGE('',*,*,#493,.T.);
#308=ORIENTED_EDGE('',*,*,#531,.T.);
#309=ORIENTED_EDGE('',*,*,#532,.T.);
#310=ORIENTED_EDGE('',*,*,#533,.T.);
#311=ORIENTED_EDGE('',*,*,#534,.T.);
#312=ORIENTED_EDGE('',*,*,#535,.T.);
#313=ORIENTED_EDGE('',*,*,#536,.T.);
#314=ORIENTED_EDGE('',*,*,#537,.T.);
#315=ORIENTED_EDGE('',*,*,#537,.F.);
#316=ORIENTED_EDGE('',*,*,#538,.T.);
#317=ORIENTED_EDGE('',*,*,#539,.T.);
#318=ORIENTED_EDGE('',*,*,#540,.F.);
#319=ORIENTED_EDGE('',*,*,#539,.F.);
#320=ORIENTED_EDGE('',*,*,#541,.T.);
#321=ORIENTED_EDGE('',*,*,#542,.F.);
#322=ORIENTED_EDGE('',*,*,#540,.T.);
#323=ORIENTED_EDGE('',*,*,#543,.T.);
#324=ORIENTED_EDGE('',*,*,#544,.F.);
#325=ORIENTED_EDGE('',*,*,#545,.F.);
#326=ORIENTED_EDGE('',*,*,#544,.T.);
#327=ORIENTED_EDGE('',*,*,#546,.F.);
#328=ORIENTED_EDGE('',*,*,#545,.T.);
#329=ORIENTED_EDGE('',*,*,#547,.F.);
#330=ORIENTED_EDGE('',*,*,#542,.T.);
#331=ORIENTED_EDGE('',*,*,#548,.F.);
#332=ORIENTED_EDGE('',*,*,#547,.T.);
#333=ORIENTED_EDGE('',*,*,#549,.F.);
#334=ORIENTED_EDGE('',*,*,#548,.T.);
#335=ORIENTED_EDGE('',*,*,#550,.F.);
#336=ORIENTED_EDGE('',*,*,#549,.T.);
#337=ORIENTED_EDGE('',*,*,#551,.F.);
#338=ORIENTED_EDGE('',*,*,#546,.T.);
#339=ORIENTED_EDGE('',*,*,#552,.F.);
#340=ORIENTED_EDGE('',*,*,#551,.T.);
#341=ORIENTED_EDGE('',*,*,#553,.F.);
#342=ORIENTED_EDGE('',*,*,#552,.T.);
#343=ORIENTED_EDGE('',*,*,#553,.T.);
#344=ORIENTED_EDGE('',*,*,#554,.F.);
#345=ORIENTED_EDGE('',*,*,#550,.T.);
#346=ORIENTED_EDGE('',*,*,#554,.T.);
#347=ORIENTED_EDGE('',*,*,#536,.F.);
#348=ORIENTED_EDGE('',*,*,#543,.F.);
#349=ORIENTED_EDGE('',*,*,#443,.F.);
#350=ORIENTED_EDGE('',*,*,#541,.F.);
#351=ORIENTED_EDGE('',*,*,#444,.F.);
#352=ORIENTED_EDGE('',*,*,#538,.F.);
#353=ORIENTED_EDGE('',*,*,#555,.F.);
#354=ORIENTED_EDGE('',*,*,#531,.F.);
#355=ORIENTED_EDGE('',*,*,#492,.F.);
#356=ORIENTED_EDGE('',*,*,#524,.F.);
#357=ORIENTED_EDGE('',*,*,#556,.F.);
#358=ORIENTED_EDGE('',*,*,#555,.T.);
#359=ORIENTED_EDGE('',*,*,#557,.F.);
#360=ORIENTED_EDGE('',*,*,#485,.F.);
#361=ORIENTED_EDGE('',*,*,#528,.F.);
#362=ORIENTED_EDGE('',*,*,#558,.F.);
#363=ORIENTED_EDGE('',*,*,#522,.F.);
#364=ORIENTED_EDGE('',*,*,#557,.T.);
#365=ORIENTED_EDGE('',*,*,#523,.F.);
#366=ORIENTED_EDGE('',*,*,#559,.F.);
#367=ORIENTED_EDGE('',*,*,#535,.F.);
#368=ORIENTED_EDGE('',*,*,#556,.T.);
#369=ORIENTED_EDGE('',*,*,#534,.F.);
#370=ORIENTED_EDGE('',*,*,#560,.F.);
#371=ORIENTED_EDGE('',*,*,#529,.F.);
#372=ORIENTED_EDGE('',*,*,#494,.F.);
#373=ORIENTED_EDGE('',*,*,#530,.F.);
#374=ORIENTED_EDGE('',*,*,#561,.F.);
#375=ORIENTED_EDGE('',*,*,#521,.F.);
#376=ORIENTED_EDGE('',*,*,#559,.T.);
#377=ORIENTED_EDGE('',*,*,#558,.T.);
#378=ORIENTED_EDGE('',*,*,#562,.F.);
#379=ORIENTED_EDGE('',*,*,#561,.T.);
#380=ORIENTED_EDGE('',*,*,#560,.T.);
#381=ORIENTED_EDGE('',*,*,#563,.F.);
#382=ORIENTED_EDGE('',*,*,#562,.T.);
#383=ORIENTED_EDGE('',*,*,#527,.F.);
#384=ORIENTED_EDGE('',*,*,#564,.F.);
#385=ORIENTED_EDGE('',*,*,#532,.F.);
#386=ORIENTED_EDGE('',*,*,#563,.T.);
#387=ORIENTED_EDGE('',*,*,#533,.F.);
#388=ORIENTED_EDGE('',*,*,#565,.F.);
#389=ORIENTED_EDGE('',*,*,#518,.F.);
#390=ORIENTED_EDGE('',*,*,#565,.T.);
#391=ORIENTED_EDGE('',*,*,#564,.T.);
#392=ORIENTED_EDGE('',*,*,#566,.F.);
#393=ORIENTED_EDGE('',*,*,#566,.T.);
#394=ORIENTED_EDGE('',*,*,#526,.F.);
#395=ORIENTED_EDGE('',*,*,#483,.F.);
#396=ORIENTED_EDGE('',*,*,#519,.F.);
#397=ORIENTED_EDGE('',*,*,#520,.F.);
#398=ORIENTED_EDGE('',*,*,#496,.F.);
#399=ORIENTED_EDGE('',*,*,#525,.F.);
#400=ORIENTED_EDGE('',*,*,#490,.F.);
#401=ORIENTED_EDGE('',*,*,#488,.F.);
#402=ORIENTED_EDGE('',*,*,#445,.F.);
#403=ORIENTED_EDGE('',*,*,#469,.T.);
#404=ORIENTED_EDGE('',*,*,#567,.F.);
#405=ORIENTED_EDGE('',*,*,#459,.F.);
#406=ORIENTED_EDGE('',*,*,#448,.T.);
#407=ORIENTED_EDGE('',*,*,#468,.T.);
#408=ORIENTED_EDGE('',*,*,#568,.F.);
#409=ORIENTED_EDGE('',*,*,#460,.F.);
#410=ORIENTED_EDGE('',*,*,#567,.T.);
#411=ORIENTED_EDGE('',*,*,#467,.T.);
#412=ORIENTED_EDGE('',*,*,#569,.F.);
#413=ORIENTED_EDGE('',*,*,#461,.F.);
#414=ORIENTED_EDGE('',*,*,#568,.T.);
#415=ORIENTED_EDGE('',*,*,#466,.T.);
#416=ORIENTED_EDGE('',*,*,#570,.F.);
#417=ORIENTED_EDGE('',*,*,#462,.F.);
#418=ORIENTED_EDGE('',*,*,#569,.T.);
#419=ORIENTED_EDGE('',*,*,#465,.F.);
#420=ORIENTED_EDGE('',*,*,#452,.F.);
#421=ORIENTED_EDGE('',*,*,#463,.T.);
#422=ORIENTED_EDGE('',*,*,#570,.T.);
#423=ORIENTED_EDGE('',*,*,#472,.F.);
#424=ORIENTED_EDGE('',*,*,#571,.T.);
#425=ORIENTED_EDGE('',*,*,#464,.T.);
#426=ORIENTED_EDGE('',*,*,#572,.T.);
#427=ORIENTED_EDGE('',*,*,#470,.T.);
#428=ORIENTED_EDGE('',*,*,#446,.T.);
#429=ORIENTED_EDGE('',*,*,#458,.F.);
#430=ORIENTED_EDGE('',*,*,#573,.T.);
#431=ORIENTED_EDGE('',*,*,#454,.F.);
#432=ORIENTED_EDGE('',*,*,#450,.T.);
#433=ORIENTED_EDGE('',*,*,#456,.T.);
#434=ORIENTED_EDGE('',*,*,#574,.T.);
#435=ORIENTED_EDGE('',*,*,#455,.F.);
#436=ORIENTED_EDGE('',*,*,#573,.F.);
#437=ORIENTED_EDGE('',*,*,#457,.F.);
#438=ORIENTED_EDGE('',*,*,#574,.F.);
#439=ORIENTED_EDGE('',*,*,#471,.F.);
#440=ORIENTED_EDGE('',*,*,#572,.F.);
#441=ORIENTED_EDGE('',*,*,#473,.F.);
#442=ORIENTED_EDGE('',*,*,#571,.F.);
#443=EDGE_CURVE('',#575,#575,#668,.F.);
#444=EDGE_CURVE('',#576,#576,#669,.F.);
#445=EDGE_CURVE('',#577,#577,#670,.T.);
#446=EDGE_CURVE('',#578,#579,#671,.T.);
#447=EDGE_CURVE('',#580,#578,#59,.T.);
#448=EDGE_CURVE('',#581,#580,#60,.T.);
#449=EDGE_CURVE('',#581,#582,#61,.T.);
#450=EDGE_CURVE('',#583,#582,#672,.T.);
#451=EDGE_CURVE('',#583,#584,#62,.T.);
#452=EDGE_CURVE('',#584,#585,#63,.T.);
#453=EDGE_CURVE('',#579,#585,#64,.T.);
#454=EDGE_CURVE('',#583,#586,#65,.F.);
#455=EDGE_CURVE('',#586,#587,#49,.T.);
#456=EDGE_CURVE('',#588,#587,#66,.T.);
#457=EDGE_CURVE('',#588,#589,#50,.T.);
#458=EDGE_CURVE('',#589,#582,#67,.T.);
#459=EDGE_CURVE('',#581,#590,#68,.T.);
#460=EDGE_CURVE('',#590,#591,#673,.T.);
#461=EDGE_CURVE('',#591,#592,#69,.T.);
#462=EDGE_CURVE('',#592,#593,#674,.T.);
#463=EDGE_CURVE('',#584,#593,#70,.T.);
#464=EDGE_CURVE('',#579,#594,#71,.F.);
#465=EDGE_CURVE('',#585,#595,#72,.T.);
#466=EDGE_CURVE('',#596,#595,#675,.T.);
#467=EDGE_CURVE('',#597,#596,#73,.T.);
#468=EDGE_CURVE('',#598,#597,#676,.T.);
#469=EDGE_CURVE('',#580,#598,#74,.T.);
#470=EDGE_CURVE('',#599,#578,#75,.T.);
#471=EDGE_CURVE('',#599,#600,#51,.T.);
#472=EDGE_CURVE('',#600,#601,#76,.T.);
#473=EDGE_CURVE('',#601,#594,#52,.T.);
#474=EDGE_CURVE('',#602,#603,#77,.T.);
#475=EDGE_CURVE('',#602,#604,#677,.T.);
#476=EDGE_CURVE('',#604,#605,#78,.T.);
#477=EDGE_CURVE('',#605,#606,#678,.T.);
#478=EDGE_CURVE('',#607,#606,#79,.T.);
#479=EDGE_CURVE('',#607,#608,#679,.T.);
#480=EDGE_CURVE('',#608,#609,#80,.T.);
#481=EDGE_CURVE('',#609,#603,#680,.T.);
#482=EDGE_CURVE('',#610,#611,#81,.F.);
#483=EDGE_CURVE('',#610,#612,#53,.T.);
#484=EDGE_CURVE('',#612,#613,#681,.T.);
#485=EDGE_CURVE('',#613,#614,#54,.T.);
#486=EDGE_CURVE('',#614,#615,#82,.F.);
#487=EDGE_CURVE('',#611,#615,#682,.T.);
#488=EDGE_CURVE('',#616,#616,#683,.F.);
#489=EDGE_CURVE('',#617,#618,#83,.F.);
#490=EDGE_CURVE('',#617,#619,#684,.T.);
#491=EDGE_CURVE('',#619,#620,#84,.F.);
#492=EDGE_CURVE('',#620,#621,#55,.T.);
#493=EDGE_CURVE('',#622,#621,#685,.T.);
#494=EDGE_CURVE('',#622,#618,#56,.T.);
#495=EDGE_CURVE('',#615,#623,#85,.T.);
#496=EDGE_CURVE('',#623,#624,#686,.F.);
#497=EDGE_CURVE('',#611,#624,#86,.T.);
#498=EDGE_CURVE('',#605,#625,#87,.T.);
#499=EDGE_CURVE('',#626,#625,#687,.T.);
#500=EDGE_CURVE('',#603,#626,#88,.T.);
#501=EDGE_CURVE('',#609,#627,#89,.T.);
#502=EDGE_CURVE('',#628,#627,#688,.T.);
#503=EDGE_CURVE('',#606,#628,#90,.T.);
#504=EDGE_CURVE('',#629,#629,#689,.T.);
#505=EDGE_CURVE('',#630,#630,#690,.T.);
#506=EDGE_CURVE('',#631,#628,#91,.T.);
#507=EDGE_CURVE('',#607,#631,#92,.T.);
#508=EDGE_CURVE('',#632,#627,#93,.T.);
#509=EDGE_CURVE('',#631,#632,#691,.T.);
#510=EDGE_CURVE('',#633,#633,#692,.T.);
#511=EDGE_CURVE('',#608,#632,#94,.T.);
#512=EDGE_CURVE('',#604,#634,#95,.T.);
#513=EDGE_CURVE('',#634,#625,#96,.T.);
#514=EDGE_CURVE('',#635,#626,#97,.T.);
#515=EDGE_CURVE('',#602,#635,#98,.T.);
#516=EDGE_CURVE('',#635,#634,#693,.T.);
#517=EDGE_CURVE('',#636,#636,#694,.T.);
#518=EDGE_CURVE('',#637,#638,#99,.F.);
#519=EDGE_CURVE('',#638,#610,#100,.T.);
#520=EDGE_CURVE('',#624,#617,#57,.T.);
#521=EDGE_CURVE('',#618,#637,#101,.F.);
#522=EDGE_CURVE('',#614,#639,#102,.F.);
#523=EDGE_CURVE('',#639,#640,#103,.T.);
#524=EDGE_CURVE('',#640,#620,#104,.T.);
#525=EDGE_CURVE('',#619,#623,#58,.T.);
#526=EDGE_CURVE('',#612,#641,#105,.F.);
#527=EDGE_CURVE('',#641,#642,#106,.T.);
#528=EDGE_CURVE('',#642,#613,#107,.T.);
#529=EDGE_CURVE('',#643,#644,#108,.F.);
#530=EDGE_CURVE('',#644,#622,#109,.T.);
#531=EDGE_CURVE('',#621,#643,#110,.F.);
#532=EDGE_CURVE('',#645,#646,#111,.F.);
#533=EDGE_CURVE('',#646,#647,#112,.T.);
#534=EDGE_CURVE('',#647,#648,#113,.T.);
#535=EDGE_CURVE('',#648,#645,#114,.F.);
#536=EDGE_CURVE('',#649,#649,#695,.F.);
#537=EDGE_CURVE('',#650,#650,#696,.T.);
#538=EDGE_CURVE('',#651,#651,#697,.T.);
#539=EDGE_CURVE('',#652,#652,#698,.T.);
#540=EDGE_CURVE('',#653,#653,#699,.T.);
#541=EDGE_CURVE('',#654,#654,#700,.T.);
#542=EDGE_CURVE('',#655,#655,#701,.T.);
#543=EDGE_CURVE('',#656,#656,#702,.T.);
#544=EDGE_CURVE('',#657,#657,#703,.T.);
#545=EDGE_CURVE('',#658,#658,#704,.T.);
#546=EDGE_CURVE('',#659,#659,#705,.T.);
#547=EDGE_CURVE('',#660,#660,#706,.T.);
#548=EDGE_CURVE('',#661,#661,#707,.T.);
#549=EDGE_CURVE('',#662,#662,#708,.T.);
#550=EDGE_CURVE('',#663,#663,#709,.T.);
#551=EDGE_CURVE('',#664,#664,#710,.T.);
#552=EDGE_CURVE('',#665,#665,#711,.T.);
#553=EDGE_CURVE('',#666,#666,#712,.T.);
#554=EDGE_CURVE('',#667,#667,#713,.T.);
#555=EDGE_CURVE('',#643,#640,#714,.T.);
#556=EDGE_CURVE('',#643,#648,#715,.F.);
#557=EDGE_CURVE('',#648,#640,#716,.F.);
#558=EDGE_CURVE('',#639,#642,#717,.T.);
#559=EDGE_CURVE('',#645,#639,#718,.T.);
#560=EDGE_CURVE('',#644,#647,#719,.T.);
#561=EDGE_CURVE('',#637,#644,#720,.T.);
#562=EDGE_CURVE('',#645,#642,#721,.F.);
#563=EDGE_CURVE('',#637,#647,#722,.F.);
#564=EDGE_CURVE('',#646,#641,#723,.T.);
#565=EDGE_CURVE('',#638,#646,#724,.T.);
#566=EDGE_CURVE('',#638,#641,#725,.F.);
#567=EDGE_CURVE('',#590,#598,#115,.T.);
#568=EDGE_CURVE('',#591,#597,#116,.T.);
#569=EDGE_CURVE('',#592,#596,#117,.T.);
#570=EDGE_CURVE('',#593,#595,#118,.T.);
#571=EDGE_CURVE('',#600,#601,#726,.T.);
#572=EDGE_CURVE('',#594,#599,#727,.F.);
#573=EDGE_CURVE('',#589,#586,#728,.F.);
#574=EDGE_CURVE('',#587,#588,#729,.T.);
#575=VERTEX_POINT('',#1495);
#576=VERTEX_POINT('',#1497);
#577=VERTEX_POINT('',#1499);
#578=VERTEX_POINT('',#1501);
#579=VERTEX_POINT('',#1502);
#580=VERTEX_POINT('',#1504);
#581=VERTEX_POINT('',#1506);
#582=VERTEX_POINT('',#1508);
#583=VERTEX_POINT('',#1510);
#584=VERTEX_POINT('',#1512);
#585=VERTEX_POINT('',#1514);
#586=VERTEX_POINT('',#1518);
#587=VERTEX_POINT('',#1523);
#588=VERTEX_POINT('',#1525);
#589=VERTEX_POINT('',#1530);
#590=VERTEX_POINT('',#1533);
#591=VERTEX_POINT('',#1535);
#592=VERTEX_POINT('',#1537);
#593=VERTEX_POINT('',#1539);
#594=VERTEX_POINT('',#1543);
#595=VERTEX_POINT('',#1545);
#596=VERTEX_POINT('',#1547);
#597=VERTEX_POINT('',#1549);
#598=VERTEX_POINT('',#1551);
#599=VERTEX_POINT('',#1554);
#600=VERTEX_POINT('',#1559);
#601=VERTEX_POINT('',#1561);
#602=VERTEX_POINT('',#1568);
#603=VERTEX_POINT('',#1569);
#604=VERTEX_POINT('',#1571);
#605=VERTEX_POINT('',#1573);
#606=VERTEX_POINT('',#1575);
#607=VERTEX_POINT('',#1577);
#608=VERTEX_POINT('',#1579);
#609=VERTEX_POINT('',#1581);
#610=VERTEX_POINT('',#1584);
#611=VERTEX_POINT('',#1585);
#612=VERTEX_POINT('',#1591);
#613=VERTEX_POINT('',#1593);
#614=VERTEX_POINT('',#1599);
#615=VERTEX_POINT('',#1601);
#616=VERTEX_POINT('',#1605);
#617=VERTEX_POINT('',#1607);
#618=VERTEX_POINT('',#1608);
#619=VERTEX_POINT('',#1610);
#620=VERTEX_POINT('',#1612);
#621=VERTEX_POINT('',#1618);
#622=VERTEX_POINT('',#1620);
#623=VERTEX_POINT('',#1628);
#624=VERTEX_POINT('',#1630);
#625=VERTEX_POINT('',#1634);
#626=VERTEX_POINT('',#1636);
#627=VERTEX_POINT('',#1639);
#628=VERTEX_POINT('',#1641);
#629=VERTEX_POINT('',#1644);
#630=VERTEX_POINT('',#1646);
#631=VERTEX_POINT('',#1649);
#632=VERTEX_POINT('',#1653);
#633=VERTEX_POINT('',#1657);
#634=VERTEX_POINT('',#1663);
#635=VERTEX_POINT('',#1667);
#636=VERTEX_POINT('',#1673);
#637=VERTEX_POINT('',#1677);
#638=VERTEX_POINT('',#1678);
#639=VERTEX_POINT('',#1688);
#640=VERTEX_POINT('',#1690);
#641=VERTEX_POINT('',#1699);
#642=VERTEX_POINT('',#1701);
#643=VERTEX_POINT('',#1705);
#644=VERTEX_POINT('',#1706);
#645=VERTEX_POINT('',#1711);
#646=VERTEX_POINT('',#1712);
#647=VERTEX_POINT('',#1714);
#648=VERTEX_POINT('',#1716);
#649=VERTEX_POINT('',#1720);
#650=VERTEX_POINT('',#1722);
#651=VERTEX_POINT('',#1725);
#652=VERTEX_POINT('',#1728);
#653=VERTEX_POINT('',#1730);
#654=VERTEX_POINT('',#1733);
#655=VERTEX_POINT('',#1736);
#656=VERTEX_POINT('',#1739);
#657=VERTEX_POINT('',#1741);
#658=VERTEX_POINT('',#1744);
#659=VERTEX_POINT('',#1747);
#660=VERTEX_POINT('',#1750);
#661=VERTEX_POINT('',#1753);
#662=VERTEX_POINT('',#1756);
#663=VERTEX_POINT('',#1759);
#664=VERTEX_POINT('',#1762);
#665=VERTEX_POINT('',#1765);
#666=VERTEX_POINT('',#1768);
#667=VERTEX_POINT('',#1772);
#668=CIRCLE('',#1041,0.0104);
#669=CIRCLE('',#1042,0.0104);
#670=CIRCLE('',#1043,0.029975);
#671=CIRCLE('',#1044,0.0045);
#672=CIRCLE('',#1045,0.0045);
#673=CIRCLE('',#1047,0.0073);
#674=CIRCLE('',#1048,0.0073);
#675=CIRCLE('',#1050,0.0073);
#676=CIRCLE('',#1051,0.0073);
#677=CIRCLE('',#1053,0.0259);
#678=CIRCLE('',#1054,0.0259);
#679=CIRCLE('',#1055,0.0259);
#680=CIRCLE('',#1056,0.0259);
#681=CIRCLE('',#1057,0.0259);
#682=CIRCLE('',#1058,0.0259);
#683=CIRCLE('',#1060,0.030475);
#684=CIRCLE('',#1061,0.030475);
#685=CIRCLE('',#1062,0.030475);
#686=CIRCLE('',#1064,0.029975);
#687=CIRCLE('',#1066,0.00825);
#688=CIRCLE('',#1067,0.00825);
#689=CIRCLE('',#1068,0.0033);
#690=CIRCLE('',#1069,0.0033);
#691=CIRCLE('',#1072,0.00825);
#692=CIRCLE('',#1074,0.0033);
#693=CIRCLE('',#1080,0.00825);
#694=CIRCLE('',#1082,0.0033);
#695=CIRCLE('',#1090,0.0084);
#696=CIRCLE('',#1091,0.0084);
#697=CIRCLE('',#1093,0.0099);
#698=CIRCLE('',#1095,0.0084);
#699=CIRCLE('',#1096,0.0084);
#700=CIRCLE('',#1098,0.0099);
#701=CIRCLE('',#1100,0.0052);
#702=CIRCLE('',#1102,0.0079);
#703=CIRCLE('',#1103,0.0052);
#704=CIRCLE('',#1105,0.0052);
#705=CIRCLE('',#1107,0.0042);
#706=CIRCLE('',#1109,0.0052);
#707=CIRCLE('',#1111,0.0042);
#708=CIRCLE('',#1113,0.0042);
#709=CIRCLE('',#1115,0.003);
#710=CIRCLE('',#1117,0.0042);
#711=CIRCLE('',#1119,0.003);
#712=CIRCLE('',#1121,0.003);
#713=CIRCLE('',#1124,0.003);
#714=CIRCLE('',#1130,0.0005);
#715=CIRCLE('',#1132,0.0005);
#716=CIRCLE('',#1133,0.0005);
#717=CIRCLE('',#1135,0.0005);
#718=CIRCLE('',#1137,0.0005);
#719=CIRCLE('',#1139,0.0005);
#720=CIRCLE('',#1141,0.0005);
#721=CIRCLE('',#1143,0.0005);
#722=CIRCLE('',#1145,0.0005);
#723=CIRCLE('',#1147,0.0005);
#724=CIRCLE('',#1149,0.0005);
#725=CIRCLE('',#1151,0.0005);
#726=CIRCLE('',#1161,0.004);
#727=CIRCLE('',#1163,0.0045);
#728=CIRCLE('',#1165,0.0045);
#729=CIRCLE('',#1167,0.004);
#730=EDGE_LOOP('',(#179));
#731=EDGE_LOOP('',(#180));
#732=EDGE_LOOP('',(#181));
#733=EDGE_LOOP('',(#182,#183,#184,#185,#186,#187,#188,#189));
#734=EDGE_LOOP('',(#190,#191,#192,#193,#194,#195,#196,#197,#198,#199,#200,
#201));
#735=EDGE_LOOP('',(#202,#203,#204,#205,#206,#207,#208,#209,#210,#211,#212,
#213));
#736=EDGE_LOOP('',(#214,#215,#216,#217,#218,#219,#220,#221));
#737=EDGE_LOOP('',(#222,#223,#224,#225,#226,#227));
#738=EDGE_LOOP('',(#228));
#739=EDGE_LOOP('',(#229,#230,#231,#232,#233,#234));
#740=EDGE_LOOP('',(#235,#236,#237,#238));
#741=EDGE_LOOP('',(#239,#240,#241,#242,#243,#244,#245,#246));
#742=EDGE_LOOP('',(#247));
#743=EDGE_LOOP('',(#248));
#744=EDGE_LOOP('',(#249,#250,#251,#252));
#745=EDGE_LOOP('',(#253,#254,#255,#256));
#746=EDGE_LOOP('',(#257));
#747=EDGE_LOOP('',(#258));
#748=EDGE_LOOP('',(#259,#260,#261,#262));
#749=EDGE_LOOP('',(#263));
#750=EDGE_LOOP('',(#264,#265,#266,#267));
#751=EDGE_LOOP('',(#268,#269,#270,#271));
#752=EDGE_LOOP('',(#272,#273,#274,#275));
#753=EDGE_LOOP('',(#276,#277,#278,#279));
#754=EDGE_LOOP('',(#280));
#755=EDGE_LOOP('',(#281));
#756=EDGE_LOOP('',(#282,#283,#284,#285));
#757=EDGE_LOOP('',(#286));
#758=EDGE_LOOP('',(#287,#288,#289,#290,#291,#292,#293));
#759=EDGE_LOOP('',(#294,#295,#296,#297,#298,#299,#300));
#760=EDGE_LOOP('',(#301,#302,#303,#304));
#761=EDGE_LOOP('',(#305,#306,#307,#308));
#762=EDGE_LOOP('',(#309,#310,#311,#312));
#763=EDGE_LOOP('',(#313));
#764=EDGE_LOOP('',(#314));
#765=EDGE_LOOP('',(#315));
#766=EDGE_LOOP('',(#316));
#767=EDGE_LOOP('',(#317));
#768=EDGE_LOOP('',(#318));
#769=EDGE_LOOP('',(#319));
#770=EDGE_LOOP('',(#320));
#771=EDGE_LOOP('',(#321));
#772=EDGE_LOOP('',(#322));
#773=EDGE_LOOP('',(#323));
#774=EDGE_LOOP('',(#324));
#775=EDGE_LOOP('',(#325));
#776=EDGE_LOOP('',(#326));
#777=EDGE_LOOP('',(#327));
#778=EDGE_LOOP('',(#328));
#779=EDGE_LOOP('',(#329));
#780=EDGE_LOOP('',(#330));
#781=EDGE_LOOP('',(#331));
#782=EDGE_LOOP('',(#332));
#783=EDGE_LOOP('',(#333));
#784=EDGE_LOOP('',(#334));
#785=EDGE_LOOP('',(#335));
#786=EDGE_LOOP('',(#336));
#787=EDGE_LOOP('',(#337));
#788=EDGE_LOOP('',(#338));
#789=EDGE_LOOP('',(#339));
#790=EDGE_LOOP('',(#340));
#791=EDGE_LOOP('',(#341));
#792=EDGE_LOOP('',(#342));
#793=EDGE_LOOP('',(#343));
#794=EDGE_LOOP('',(#344));
#795=EDGE_LOOP('',(#345));
#796=EDGE_LOOP('',(#346));
#797=EDGE_LOOP('',(#347));
#798=EDGE_LOOP('',(#348));
#799=EDGE_LOOP('',(#349));
#800=EDGE_LOOP('',(#350));
#801=EDGE_LOOP('',(#351));
#802=EDGE_LOOP('',(#352));
#803=EDGE_LOOP('',(#353,#354,#355,#356));
#804=EDGE_LOOP('',(#357,#358,#359));
#805=EDGE_LOOP('',(#360,#361,#362,#363));
#806=EDGE_LOOP('',(#364,#365,#366,#367));
#807=EDGE_LOOP('',(#368,#369,#370,#371));
#808=EDGE_LOOP('',(#372,#373,#374,#375));
#809=EDGE_LOOP('',(#376,#377,#378));
#810=EDGE_LOOP('',(#379,#380,#381));
#811=EDGE_LOOP('',(#382,#383,#384,#385));
#812=EDGE_LOOP('',(#386,#387,#388,#389));
#813=EDGE_LOOP('',(#390,#391,#392));
#814=EDGE_LOOP('',(#393,#394,#395,#396));
#815=EDGE_LOOP('',(#397,#398,#399,#400));
#816=EDGE_LOOP('',(#401));
#817=EDGE_LOOP('',(#402));
#818=EDGE_LOOP('',(#403,#404,#405,#406));
#819=EDGE_LOOP('',(#407,#408,#409,#410));
#820=EDGE_LOOP('',(#411,#412,#413,#414));
#821=EDGE_LOOP('',(#415,#416,#417,#418));
#822=EDGE_LOOP('',(#419,#420,#421,#422));
#823=EDGE_LOOP('',(#423,#424));
#824=EDGE_LOOP('',(#425,#426,#427,#428));
#825=EDGE_LOOP('',(#429,#430,#431,#432));
#826=EDGE_LOOP('',(#433,#434));
#827=EDGE_LOOP('',(#435,#436,#437,#438));
#828=EDGE_LOOP('',(#439,#440,#441,#442));
#829=FACE_BOUND('',#730,.T.);
#830=FACE_BOUND('',#731,.T.);
#831=FACE_BOUND('',#732,.T.);
#832=FACE_BOUND('',#733,.T.);
#833=FACE_BOUND('',#734,.T.);
#834=FACE_BOUND('',#735,.T.);
#835=FACE_BOUND('',#736,.T.);
#836=FACE_BOUND('',#737,.T.);
#837=FACE_BOUND('',#738,.T.);
#838=FACE_BOUND('',#739,.T.);
#839=FACE_BOUND('',#740,.T.);
#840=FACE_BOUND('',#741,.T.);
#841=FACE_BOUND('',#742,.T.);
#842=FACE_BOUND('',#743,.T.);
#843=FACE_BOUND('',#744,.T.);
#844=FACE_BOUND('',#745,.T.);
#845=FACE_BOUND('',#746,.T.);
#846=FACE_BOUND('',#747,.T.);
#847=FACE_BOUND('',#748,.T.);
#848=FACE_BOUND('',#749,.T.);
#849=FACE_BOUND('',#750,.T.);
#850=FACE_BOUND('',#751,.T.);
#851=FACE_BOUND('',#752,.T.);
#852=FACE_BOUND('',#753,.T.);
#853=FACE_BOUND('',#754,.T.);
#854=FACE_BOUND('',#755,.T.);
#855=FACE_BOUND('',#756,.T.);
#856=FACE_BOUND('',#757,.T.);
#857=FACE_BOUND('',#758,.T.);
#858=FACE_BOUND('',#759,.T.);
#859=FACE_BOUND('',#760,.T.);
#860=FACE_BOUND('',#761,.T.);
#861=FACE_BOUND('',#762,.T.);
#862=FACE_BOUND('',#763,.T.);
#863=FACE_BOUND('',#764,.T.);
#864=FACE_BOUND('',#765,.T.);
#865=FACE_BOUND('',#766,.T.);
#866=FACE_BOUND('',#767,.T.);
#867=FACE_BOUND('',#768,.T.);
#868=FACE_BOUND('',#769,.T.);
#869=FACE_BOUND('',#770,.T.);
#870=FACE_BOUND('',#771,.T.);
#871=FACE_BOUND('',#772,.T.);
#872=FACE_BOUND('',#773,.T.);
#873=FACE_BOUND('',#774,.T.);
#874=FACE_BOUND('',#775,.T.);
#875=FACE_BOUND('',#776,.T.);
#876=FACE_BOUND('',#777,.T.);
#877=FACE_BOUND('',#778,.T.);
#878=FACE_BOUND('',#779,.T.);
#879=FACE_BOUND('',#780,.T.);
#880=FACE_BOUND('',#781,.T.);
#881=FACE_BOUND('',#782,.T.);
#882=FACE_BOUND('',#783,.T.);
#883=FACE_BOUND('',#784,.T.);
#884=FACE_BOUND('',#785,.T.);
#885=FACE_BOUND('',#786,.T.);
#886=FACE_BOUND('',#787,.T.);
#887=FACE_BOUND('',#788,.T.);
#888=FACE_BOUND('',#789,.T.);
#889=FACE_BOUND('',#790,.T.);
#890=FACE_BOUND('',#791,.T.);
#891=FACE_BOUND('',#792,.T.);
#892=FACE_BOUND('',#793,.T.);
#893=FACE_BOUND('',#794,.T.);
#894=FACE_BOUND('',#795,.T.);
#895=FACE_BOUND('',#796,.T.);
#896=FACE_BOUND('',#797,.T.);
#897=FACE_BOUND('',#798,.T.);
#898=FACE_BOUND('',#799,.T.);
#899=FACE_BOUND('',#800,.T.);
#900=FACE_BOUND('',#801,.T.);
#901=FACE_BOUND('',#802,.T.);
#902=FACE_BOUND('',#803,.T.);
#903=FACE_BOUND('',#804,.T.);
#904=FACE_BOUND('',#805,.T.);
#905=FACE_BOUND('',#806,.T.);
#906=FACE_BOUND('',#807,.T.);
#907=FACE_BOUND('',#808,.T.);
#908=FACE_BOUND('',#809,.T.);
#909=FACE_BOUND('',#810,.T.);
#910=FACE_BOUND('',#811,.T.);
#911=FACE_BOUND('',#812,.T.);
#912=FACE_BOUND('',#813,.T.);
#913=FACE_BOUND('',#814,.T.);
#914=FACE_BOUND('',#815,.T.);
#915=FACE_BOUND('',#816,.T.);
#916=FACE_BOUND('',#817,.T.);
#917=FACE_BOUND('',#818,.T.);
#918=FACE_BOUND('',#819,.T.);
#919=FACE_BOUND('',#820,.T.);
#920=FACE_BOUND('',#821,.T.);
#921=FACE_BOUND('',#822,.T.);
#922=FACE_BOUND('',#823,.T.);
#923=FACE_BOUND('',#824,.T.);
#924=FACE_BOUND('',#825,.T.);
#925=FACE_BOUND('',#826,.T.);
#926=FACE_BOUND('',#827,.T.);
#927=FACE_BOUND('',#828,.T.);
#928=PLANE('',#1040);
#929=PLANE('',#1046);
#930=PLANE('',#1049);
#931=PLANE('',#1063);
#932=PLANE('',#1065);
#933=PLANE('',#1070);
#934=PLANE('',#1075);
#935=PLANE('',#1076);
#936=PLANE('',#1077);
#937=PLANE('',#1078);
#938=PLANE('',#1083);
#939=PLANE('',#1084);
#940=PLANE('',#1085);
#941=PLANE('',#1086);
#942=PLANE('',#1087);
#943=PLANE('',#1088);
#944=PLANE('',#1092);
#945=PLANE('',#1097);
#946=PLANE('',#1099);
#947=PLANE('',#1101);
#948=PLANE('',#1106);
#949=PLANE('',#1110);
#950=PLANE('',#1114);
#951=PLANE('',#1118);
#952=PLANE('',#1122);
#953=PLANE('',#1125);
#954=PLANE('',#1155);
#955=PLANE('',#1157);
#956=PLANE('',#1159);
#957=PLANE('',#1160);
#958=PLANE('',#1166);
#959=ADVANCED_FACE('',(#829,#830,#831,#832),#928,.T.);
#960=ADVANCED_FACE('',(#833),#929,.T.);
#961=ADVANCED_FACE('',(#834),#930,.F.);
#962=ADVANCED_FACE('',(#835,#836),#23,.T.);
#963=ADVANCED_FACE('',(#837,#838),#24,.T.);
#964=ADVANCED_FACE('',(#839),#931,.F.);
#965=ADVANCED_FACE('',(#840,#841,#842),#932,.F.);
#966=ADVANCED_FACE('',(#843),#933,.F.);
#967=ADVANCED_FACE('',(#844),#25,.T.);
#968=ADVANCED_FACE('',(#845,#846),#26,.F.);
#969=ADVANCED_FACE('',(#847),#934,.T.);
#970=ADVANCED_FACE('',(#848,#849),#935,.T.);
#971=ADVANCED_FACE('',(#850),#936,.T.);
#972=ADVANCED_FACE('',(#851),#937,.F.);
#973=ADVANCED_FACE('',(#852),#27,.T.);
#974=ADVANCED_FACE('',(#853,#854),#28,.F.);
#975=ADVANCED_FACE('',(#855,#856),#938,.T.);
#976=ADVANCED_FACE('',(#857),#939,.F.);
#977=ADVANCED_FACE('',(#858),#940,.T.);
#978=ADVANCED_FACE('',(#859),#941,.T.);
#979=ADVANCED_FACE('',(#860),#942,.F.);
#980=ADVANCED_FACE('',(#861),#943,.T.);
#981=ADVANCED_FACE('',(#862,#863),#29,.T.);
#982=ADVANCED_FACE('',(#864,#865),#944,.T.);
#983=ADVANCED_FACE('',(#866,#867),#30,.T.);
#984=ADVANCED_FACE('',(#868,#869),#945,.T.);
#985=ADVANCED_FACE('',(#870,#871),#946,.T.);
#986=ADVANCED_FACE('',(#872,#873),#947,.T.);
#987=ADVANCED_FACE('',(#874,#875),#31,.F.);
#988=ADVANCED_FACE('',(#876,#877),#948,.T.);
#989=ADVANCED_FACE('',(#878,#879),#32,.F.);
#990=ADVANCED_FACE('',(#880,#881),#949,.T.);
#991=ADVANCED_FACE('',(#882,#883),#33,.T.);
#992=ADVANCED_FACE('',(#884,#885),#950,.T.);
#993=ADVANCED_FACE('',(#886,#887),#34,.T.);
#994=ADVANCED_FACE('',(#888,#889),#951,.T.);
#995=ADVANCED_FACE('',(#890,#891),#35,.T.);
#996=ADVANCED_FACE('',(#892),#952,.T.);
#997=ADVANCED_FACE('',(#893,#894),#36,.T.);
#998=ADVANCED_FACE('',(#895),#953,.T.);
#999=ADVANCED_FACE('',(#896,#897),#16,.T.);
#1000=ADVANCED_FACE('',(#898,#899),#17,.T.);
#1001=ADVANCED_FACE('',(#900,#901),#18,.T.);
#1002=ADVANCED_FACE('',(#902),#37,.T.);
#1003=ADVANCED_FACE('',(#903),#12,.T.);
#1004=ADVANCED_FACE('',(#904),#38,.T.);
#1005=ADVANCED_FACE('',(#905),#39,.T.);
#1006=ADVANCED_FACE('',(#906),#40,.T.);
#1007=ADVANCED_FACE('',(#907),#41,.T.);
#1008=ADVANCED_FACE('',(#908),#13,.T.);
#1009=ADVANCED_FACE('',(#909),#14,.T.);
#1010=ADVANCED_FACE('',(#910),#42,.T.);
#1011=ADVANCED_FACE('',(#911),#43,.T.);
#1012=ADVANCED_FACE('',(#912),#15,.T.);
#1013=ADVANCED_FACE('',(#913),#44,.T.);
#1014=ADVANCED_FACE('',(#914),#19,.T.);
#1015=ADVANCED_FACE('',(#915,#916),#20,.T.);
#1016=ADVANCED_FACE('',(#917),#954,.F.);
#1017=ADVANCED_FACE('',(#918),#45,.T.);
#1018=ADVANCED_FACE('',(#919),#955,.F.);
#1019=ADVANCED_FACE('',(#920),#46,.T.);
#1020=ADVANCED_FACE('',(#921),#956,.T.);
#1021=ADVANCED_FACE('',(#922),#957,.T.);
#1022=ADVANCED_FACE('',(#923),#47,.T.);
#1023=ADVANCED_FACE('',(#924),#48,.T.);
#1024=ADVANCED_FACE('',(#925),#958,.T.);
#1025=ADVANCED_FACE('',(#926),#21,.T.);
#1026=ADVANCED_FACE('',(#927),#22,.T.);
#1027=CLOSED_SHELL('',(#959,#960,#961,#962,#963,#964,#965,#966,#967,#968,
#969,#970,#971,#972,#973,#974,#975,#976,#977,#978,#979,#980,#981,#982,#983,
#984,#985,#986,#987,#988,#989,#990,#991,#992,#993,#994,#995,#996,#997,#998,
#999,#1000,#1001,#1002,#1003,#1004,#1005,#1006,#1007,#1008,#1009,#1010,
#1011,#1012,#1013,#1014,#1015,#1016,#1017,#1018,#1019,#1020,#1021,#1022,
#1023,#1024,#1025,#1026));
#1028=STYLED_ITEM('',(#1029),#1036);
#1029=PRESENTATION_STYLE_ASSIGNMENT((#1030));
#1030=SURFACE_STYLE_USAGE(.BOTH.,#1031);
#1031=SURFACE_SIDE_STYLE('',(#1032));
#1032=SURFACE_STYLE_FILL_AREA(#1033);
#1033=FILL_AREA_STYLE('',(#1034));
#1034=FILL_AREA_STYLE_COLOUR('',#1035);
#1035=COLOUR_RGB('',0.615686274509804,0.811764705882353,0.929411764705882);
#1036=MANIFOLD_SOLID_BREP('SHDC-250',#1027);
#1037=SHAPE_DEFINITION_REPRESENTATION(#1828,#1038);
#1038=SHAPE_REPRESENTATION('SHDC-250',(#1039),#1823);
#1039=AXIS2_PLACEMENT_3D('',#1492,#1170,#1171);
#1040=AXIS2_PLACEMENT_3D('',#1493,#1172,#1173);
#1041=AXIS2_PLACEMENT_3D('',#1494,#1174,#1175);
#1042=AXIS2_PLACEMENT_3D('',#1496,#1176,#1177);
#1043=AXIS2_PLACEMENT_3D('',#1498,#1178,#1179);
#1044=AXIS2_PLACEMENT_3D('',#1500,#1180,#1181);
#1045=AXIS2_PLACEMENT_3D('',#1509,#1185,#1186);
#1046=AXIS2_PLACEMENT_3D('',#1516,#1190,#1191);
#1047=AXIS2_PLACEMENT_3D('',#1534,#1196,#1197);
#1048=AXIS2_PLACEMENT_3D('',#1538,#1199,#1200);
#1049=AXIS2_PLACEMENT_3D('',#1541,#1202,#1203);
#1050=AXIS2_PLACEMENT_3D('',#1546,#1206,#1207);
#1051=AXIS2_PLACEMENT_3D('',#1550,#1209,#1210);
#1052=AXIS2_PLACEMENT_3D('',#1566,#1214,#1215);
#1053=AXIS2_PLACEMENT_3D('',#1570,#1217,#1218);
#1054=AXIS2_PLACEMENT_3D('',#1574,#1220,#1221);
#1055=AXIS2_PLACEMENT_3D('',#1578,#1223,#1224);
#1056=AXIS2_PLACEMENT_3D('',#1582,#1226,#1227);
#1057=AXIS2_PLACEMENT_3D('',#1592,#1229,#1230);
#1058=AXIS2_PLACEMENT_3D('',#1602,#1232,#1233);
#1059=AXIS2_PLACEMENT_3D('',#1603,#1234,#1235);
#1060=AXIS2_PLACEMENT_3D('',#1604,#1236,#1237);
#1061=AXIS2_PLACEMENT_3D('',#1609,#1239,#1240);
#1062=AXIS2_PLACEMENT_3D('',#1619,#1242,#1243);
#1063=AXIS2_PLACEMENT_3D('',#1626,#1244,#1245);
#1064=AXIS2_PLACEMENT_3D('',#1629,#1247,#1248);
#1065=AXIS2_PLACEMENT_3D('',#1632,#1250,#1251);
#1066=AXIS2_PLACEMENT_3D('',#1635,#1253,#1254);
#1067=AXIS2_PLACEMENT_3D('',#1640,#1257,#1258);
#1068=AXIS2_PLACEMENT_3D('',#1643,#1260,#1261);
#1069=AXIS2_PLACEMENT_3D('',#1645,#1262,#1263);
#1070=AXIS2_PLACEMENT_3D('',#1647,#1264,#1265);
#1071=AXIS2_PLACEMENT_3D('',#1651,#1268,#1269);
#1072=AXIS2_PLACEMENT_3D('',#1654,#1271,#1272);
#1073=AXIS2_PLACEMENT_3D('',#1655,#1273,#1274);
#1074=AXIS2_PLACEMENT_3D('',#1656,#1275,#1276);
#1075=AXIS2_PLACEMENT_3D('',#1658,#1277,#1278);
#1076=AXIS2_PLACEMENT_3D('',#1660,#1280,#1281);
#1077=AXIS2_PLACEMENT_3D('',#1661,#1282,#1283);
#1078=AXIS2_PLACEMENT_3D('',#1665,#1286,#1287);
#1079=AXIS2_PLACEMENT_3D('',#1669,#1290,#1291);
#1080=AXIS2_PLACEMENT_3D('',#1670,#1292,#1293);
#1081=AXIS2_PLACEMENT_3D('',#1671,#1294,#1295);
#1082=AXIS2_PLACEMENT_3D('',#1672,#1296,#1297);
#1083=AXIS2_PLACEMENT_3D('',#1674,#1298,#1299);
#1084=AXIS2_PLACEMENT_3D('',#1675,#1300,#1301);
#1085=AXIS2_PLACEMENT_3D('',#1686,#1305,#1306);
#1086=AXIS2_PLACEMENT_3D('',#1697,#1310,#1311);
#1087=AXIS2_PLACEMENT_3D('',#1703,#1315,#1316);
#1088=AXIS2_PLACEMENT_3D('',#1709,#1320,#1321);
#1089=AXIS2_PLACEMENT_3D('',#1718,#1326,#1327);
#1090=AXIS2_PLACEMENT_3D('',#1719,#1328,#1329);
#1091=AXIS2_PLACEMENT_3D('',#1721,#1330,#1331);
#1092=AXIS2_PLACEMENT_3D('',#1723,#1332,#1333);
#1093=AXIS2_PLACEMENT_3D('',#1724,#1334,#1335);
#1094=AXIS2_PLACEMENT_3D('',#1726,#1336,#1337);
#1095=AXIS2_PLACEMENT_3D('',#1727,#1338,#1339);
#1096=AXIS2_PLACEMENT_3D('',#1729,#1340,#1341);
#1097=AXIS2_PLACEMENT_3D('',#1731,#1342,#1343);
#1098=AXIS2_PLACEMENT_3D('',#1732,#1344,#1345);
#1099=AXIS2_PLACEMENT_3D('',#1734,#1346,#1347);
#1100=AXIS2_PLACEMENT_3D('',#1735,#1348,#1349);
#1101=AXIS2_PLACEMENT_3D('',#1737,#1350,#1351);
#1102=AXIS2_PLACEMENT_3D('',#1738,#1352,#1353);
#1103=AXIS2_PLACEMENT_3D('',#1740,#1354,#1355);
#1104=AXIS2_PLACEMENT_3D('',#1742,#1356,#1357);
#1105=AXIS2_PLACEMENT_3D('',#1743,#1358,#1359);
#1106=AXIS2_PLACEMENT_3D('',#1745,#1360,#1361);
#1107=AXIS2_PLACEMENT_3D('',#1746,#1362,#1363);
#1108=AXIS2_PLACEMENT_3D('',#1748,#1364,#1365);
#1109=AXIS2_PLACEMENT_3D('',#1749,#1366,#1367);
#1110=AXIS2_PLACEMENT_3D('',#1751,#1368,#1369);
#1111=AXIS2_PLACEMENT_3D('',#1752,#1370,#1371);
#1112=AXIS2_PLACEMENT_3D('',#1754,#1372,#1373);
#1113=AXIS2_PLACEMENT_3D('',#1755,#1374,#1375);
#1114=AXIS2_PLACEMENT_3D('',#1757,#1376,#1377);
#1115=AXIS2_PLACEMENT_3D('',#1758,#1378,#1379);
#1116=AXIS2_PLACEMENT_3D('',#1760,#1380,#1381);
#1117=AXIS2_PLACEMENT_3D('',#1761,#1382,#1383);
#1118=AXIS2_PLACEMENT_3D('',#1763,#1384,#1385);
#1119=AXIS2_PLACEMENT_3D('',#1764,#1386,#1387);
#1120=AXIS2_PLACEMENT_3D('',#1766,#1388,#1389);
#1121=AXIS2_PLACEMENT_3D('',#1767,#1390,#1391);
#1122=AXIS2_PLACEMENT_3D('',#1769,#1392,#1393);
#1123=AXIS2_PLACEMENT_3D('',#1770,#1394,#1395);
#1124=AXIS2_PLACEMENT_3D('',#1771,#1396,#1397);
#1125=AXIS2_PLACEMENT_3D('',#1773,#1398,#1399);
#1126=AXIS2_PLACEMENT_3D('',#1774,#1400,#1401);
#1127=AXIS2_PLACEMENT_3D('',#1775,#1402,#1403);
#1128=AXIS2_PLACEMENT_3D('',#1776,#1404,#1405);
#1129=AXIS2_PLACEMENT_3D('',#1777,#1406,#1407);
#1130=AXIS2_PLACEMENT_3D('',#1778,#1408,#1409);
#1131=AXIS2_PLACEMENT_3D('',#1779,#1410,#1411);
#1132=AXIS2_PLACEMENT_3D('',#1780,#1412,#1413);
#1133=AXIS2_PLACEMENT_3D('',#1781,#1414,#1415);
#1134=AXIS2_PLACEMENT_3D('',#1782,#1416,#1417);
#1135=AXIS2_PLACEMENT_3D('',#1783,#1418,#1419);
#1136=AXIS2_PLACEMENT_3D('',#1784,#1420,#1421);
#1137=AXIS2_PLACEMENT_3D('',#1785,#1422,#1423);
#1138=AXIS2_PLACEMENT_3D('',#1786,#1424,#1425);
#1139=AXIS2_PLACEMENT_3D('',#1787,#1426,#1427);
#1140=AXIS2_PLACEMENT_3D('',#1788,#1428,#1429);
#1141=AXIS2_PLACEMENT_3D('',#1789,#1430,#1431);
#1142=AXIS2_PLACEMENT_3D('',#1790,#1432,#1433);
#1143=AXIS2_PLACEMENT_3D('',#1791,#1434,#1435);
#1144=AXIS2_PLACEMENT_3D('',#1792,#1436,#1437);
#1145=AXIS2_PLACEMENT_3D('',#1793,#1438,#1439);
#1146=AXIS2_PLACEMENT_3D('',#1794,#1440,#1441);
#1147=AXIS2_PLACEMENT_3D('',#1795,#1442,#1443);
#1148=AXIS2_PLACEMENT_3D('',#1796,#1444,#1445);
#1149=AXIS2_PLACEMENT_3D('',#1797,#1446,#1447);
#1150=AXIS2_PLACEMENT_3D('',#1798,#1448,#1449);
#1151=AXIS2_PLACEMENT_3D('',#1799,#1450,#1451);
#1152=AXIS2_PLACEMENT_3D('',#1800,#1452,#1453);
#1153=AXIS2_PLACEMENT_3D('',#1801,#1454,#1455);
#1154=AXIS2_PLACEMENT_3D('',#1802,#1456,#1457);
#1155=AXIS2_PLACEMENT_3D('',#1803,#1458,#1459);
#1156=AXIS2_PLACEMENT_3D('',#1805,#1461,#1462);
#1157=AXIS2_PLACEMENT_3D('',#1807,#1464,#1465);
#1158=AXIS2_PLACEMENT_3D('',#1809,#1467,#1468);
#1159=AXIS2_PLACEMENT_3D('',#1811,#1470,#1471);
#1160=AXIS2_PLACEMENT_3D('',#1812,#1472,#1473);
#1161=AXIS2_PLACEMENT_3D('',#1813,#1474,#1475);
#1162=AXIS2_PLACEMENT_3D('',#1814,#1476,#1477);
#1163=AXIS2_PLACEMENT_3D('',#1815,#1478,#1479);
#1164=AXIS2_PLACEMENT_3D('',#1816,#1480,#1481);
#1165=AXIS2_PLACEMENT_3D('',#1817,#1482,#1483);
#1166=AXIS2_PLACEMENT_3D('',#1818,#1484,#1485);
#1167=AXIS2_PLACEMENT_3D('',#1819,#1486,#1487);
#1168=AXIS2_PLACEMENT_3D('',#1820,#1488,#1489);
#1169=AXIS2_PLACEMENT_3D('',#1821,#1490,#1491);
#1170=DIRECTION('',(0.,0.,1.));
#1171=DIRECTION('',(1.,0.,0.));
#1172=DIRECTION('',(0.,0.,1.));
#1173=DIRECTION('',(1.,0.,0.));
#1174=DIRECTION('',(0.,0.,1.));
#1175=DIRECTION('',(1.,0.,0.));
#1176=DIRECTION('',(0.,0.,1.));
#1177=DIRECTION('',(1.,0.,0.));
#1178=DIRECTION('',(0.,0.,1.));
#1179=DIRECTION('',(1.,0.,0.));
#1180=DIRECTION('',(0.,0.,1.));
#1181=DIRECTION('',(1.,0.,0.));
#1182=DIRECTION('',(0.,-1.,0.));
#1183=DIRECTION('',(-1.,0.,0.));
#1184=DIRECTION('',(0.,-1.,0.));
#1185=DIRECTION('',(0.,0.,1.));
#1186=DIRECTION('',(1.,0.,0.));
#1187=DIRECTION('',(0.,-1.,0.));
#1188=DIRECTION('',(-1.,0.,0.));
#1189=DIRECTION('',(0.,-1.,0.));
#1190=DIRECTION('',(1.,0.,0.));
#1191=DIRECTION('',(0.,1.,0.));
#1192=DIRECTION('',(0.,0.,-1.));
#1193=DIRECTION('',(0.,-1.,0.));
#1194=DIRECTION('',(0.,0.,-1.));
#1195=DIRECTION('',(0.,0.,1.));
#1196=DIRECTION('',(1.,0.,0.));
#1197=DIRECTION('',(0.,0.,-1.));
#1198=DIRECTION('',(0.,-1.,0.));
#1199=DIRECTION('',(1.,0.,0.));
#1200=DIRECTION('',(0.,0.,-1.));
#1201=DIRECTION('',(0.,0.,1.));
#1202=DIRECTION('',(1.,0.,0.));
#1203=DIRECTION('',(0.,1.,0.));
#1204=DIRECTION('',(0.,0.,-1.));
#1205=DIRECTION('',(0.,0.,1.));
#1206=DIRECTION('',(1.,0.,0.));
#1207=DIRECTION('',(0.,0.,-1.));
#1208=DIRECTION('',(0.,-1.,0.));
#1209=DIRECTION('',(1.,0.,0.));
#1210=DIRECTION('',(0.,0.,-1.));
#1211=DIRECTION('',(0.,0.,1.));
#1212=DIRECTION('',(0.,0.,-1.));
#1213=DIRECTION('',(0.,-1.,0.));
#1214=DIRECTION('',(0.,0.,-1.));
#1215=DIRECTION('',(-1.,0.,0.));
#1216=DIRECTION('',(0.,0.,-1.));
#1217=DIRECTION('',(0.,0.,1.));
#1218=DIRECTION('',(1.,0.,0.));
#1219=DIRECTION('',(0.,0.,-1.));
#1220=DIRECTION('',(0.,0.,1.));
#1221=DIRECTION('',(1.,0.,0.));
#1222=DIRECTION('',(0.,0.,-1.));
#1223=DIRECTION('',(0.,0.,1.));
#1224=DIRECTION('',(1.,0.,0.));
#1225=DIRECTION('',(0.,0.,-1.));
#1226=DIRECTION('',(0.,0.,1.));
#1227=DIRECTION('',(1.,0.,0.));
#1228=DIRECTION('',(0.,0.,-1.));
#1229=DIRECTION('',(0.,0.,-1.));
#1230=DIRECTION('',(-1.,0.,0.));
#1231=DIRECTION('',(0.,0.,-1.));
#1232=DIRECTION('',(0.,0.,1.));
#1233=DIRECTION('',(1.,0.,0.));
#1234=DIRECTION('',(0.,0.,-1.));
#1235=DIRECTION('',(-1.,0.,0.));
#1236=DIRECTION('',(0.,0.,1.));
#1237=DIRECTION('',(1.,0.,0.));
#1238=DIRECTION('',(0.,0.,-1.));
#1239=DIRECTION('',(0.,0.,1.));
#1240=DIRECTION('',(1.,0.,0.));
#1241=DIRECTION('',(0.,0.,-1.));
#1242=DIRECTION('',(0.,0.,-1.));
#1243=DIRECTION('',(-1.,0.,0.));
#1244=DIRECTION('',(0.,0.,1.));
#1245=DIRECTION('',(1.,0.,0.));
#1246=DIRECTION('',(0.,-1.,0.));
#1247=DIRECTION('',(0.,0.,1.));
#1248=DIRECTION('',(1.,0.,0.));
#1249=DIRECTION('',(0.,-1.,0.));
#1250=DIRECTION('',(0.,0.,1.));
#1251=DIRECTION('',(1.,0.,0.));
#1252=DIRECTION('',(0.827567523613119,-0.561366185177598,0.));
#1253=DIRECTION('',(0.,0.,1.));
#1254=DIRECTION('',(1.,0.,0.));
#1255=DIRECTION('',(0.827567523613119,0.561366185177598,0.));
#1256=DIRECTION('',(-0.822549880671666,0.568692969718308,0.));
#1257=DIRECTION('',(0.,0.,1.));
#1258=DIRECTION('',(1.,0.,0.));
#1259=DIRECTION('',(-0.822549880671666,-0.568692969718308,0.));
#1260=DIRECTION('',(0.,0.,1.));
#1261=DIRECTION('',(1.,0.,0.));
#1262=DIRECTION('',(0.,0.,1.));
#1263=DIRECTION('',(1.,0.,0.));
#1264=DIRECTION('',(0.568692969718308,-0.822549880671666,0.));
#1265=DIRECTION('',(0.822549880671666,0.568692969718308,0.));
#1266=DIRECTION('',(0.,0.,-1.));
#1267=DIRECTION('',(-0.822549880671666,-0.568692969718308,0.));
#1268=DIRECTION('',(0.,0.,-1.));
#1269=DIRECTION('',(-1.,0.,0.));
#1270=DIRECTION('',(0.,0.,-1.));
#1271=DIRECTION('',(0.,0.,1.));
#1272=DIRECTION('',(1.,0.,0.));
#1273=DIRECTION('',(0.,0.,-1.));
#1274=DIRECTION('',(-1.,0.,0.));
#1275=DIRECTION('',(0.,0.,1.));
#1276=DIRECTION('',(1.,0.,0.));
#1277=DIRECTION('',(-0.568692969718308,-0.822549880671666,0.));
#1278=DIRECTION('',(0.822549880671666,-0.568692969718308,0.));
#1279=DIRECTION('',(-0.822549880671666,0.568692969718308,0.));
#1280=DIRECTION('',(0.,0.,1.));
#1281=DIRECTION('',(1.,0.,0.));
#1282=DIRECTION('',(0.561366185177598,0.827567523613119,0.));
#1283=DIRECTION('',(-0.827567523613119,0.561366185177598,0.));
#1284=DIRECTION('',(0.827567523613119,-0.561366185177598,0.));
#1285=DIRECTION('',(0.,0.,-1.));
#1286=DIRECTION('',(-0.561366185177598,0.827567523613119,0.));
#1287=DIRECTION('',(-0.827567523613119,-0.561366185177598,0.));
#1288=DIRECTION('',(0.,0.,-1.));
#1289=DIRECTION('',(0.827567523613119,0.561366185177598,0.));
#1290=DIRECTION('',(0.,0.,-1.));
#1291=DIRECTION('',(-1.,0.,0.));
#1292=DIRECTION('',(0.,0.,1.));
#1293=DIRECTION('',(1.,0.,0.));
#1294=DIRECTION('',(0.,0.,-1.));
#1295=DIRECTION('',(-1.,0.,0.));
#1296=DIRECTION('',(0.,0.,1.));
#1297=DIRECTION('',(1.,0.,0.));
#1298=DIRECTION('',(0.,0.,1.));
#1299=DIRECTION('',(1.,0.,0.));
#1300=DIRECTION('',(-1.,0.,0.));
#1301=DIRECTION('',(0.,0.,1.));
#1302=DIRECTION('',(0.,0.,1.));
#1303=DIRECTION('',(0.,1.,0.));
#1304=DIRECTION('',(0.,1.,0.));
#1305=DIRECTION('',(-1.,0.,0.));
#1306=DIRECTION('',(0.,0.,1.));
#1307=DIRECTION('',(0.,1.,0.));
#1308=DIRECTION('',(0.,0.,1.));
#1309=DIRECTION('',(0.,1.,0.));
#1310=DIRECTION('',(0.,0.,-1.));
#1311=DIRECTION('',(-1.,0.,0.));
#1312=DIRECTION('',(0.,1.,0.));
#1313=DIRECTION('',(-1.,0.,0.));
#1314=DIRECTION('',(0.,1.,0.));
#1315=DIRECTION('',(0.,0.,-1.));
#1316=DIRECTION('',(-1.,0.,0.));
#1317=DIRECTION('',(-1.,0.,0.));
#1318=DIRECTION('',(0.,1.,0.));
#1319=DIRECTION('',(0.,1.,0.));
#1320=DIRECTION('',(0.,-1.,0.));
#1321=DIRECTION('',(1.,0.,0.));
#1322=DIRECTION('',(-1.,0.,0.));
#1323=DIRECTION('',(0.,0.,1.));
#1324=DIRECTION('',(-1.,0.,0.));
#1325=DIRECTION('',(0.,0.,1.));
#1326=DIRECTION('',(0.,0.,1.));
#1327=DIRECTION('',(1.,0.,0.));
#1328=DIRECTION('',(0.,0.,1.));
#1329=DIRECTION('',(1.,0.,0.));
#1330=DIRECTION('',(0.,0.,1.));
#1331=DIRECTION('',(1.,0.,0.));
#1332=DIRECTION('',(0.,0.,1.));
#1333=DIRECTION('',(1.,0.,0.));
#1334=DIRECTION('',(0.,0.,1.));
#1335=DIRECTION('',(1.,0.,0.));
#1336=DIRECTION('',(0.,0.,1.));
#1337=DIRECTION('',(1.,0.,0.));
#1338=DIRECTION('',(0.,0.,1.));
#1339=DIRECTION('',(1.,0.,0.));
#1340=DIRECTION('',(0.,0.,1.));
#1341=DIRECTION('',(1.,0.,0.));
#1342=DIRECTION('',(0.,0.,1.));
#1343=DIRECTION('',(1.,0.,0.));
#1344=DIRECTION('',(0.,0.,1.));
#1345=DIRECTION('',(1.,0.,0.));
#1346=DIRECTION('',(0.,0.,1.));
#1347=DIRECTION('',(1.,0.,0.));
#1348=DIRECTION('',(0.,0.,1.));
#1349=DIRECTION('',(1.,0.,0.));
#1350=DIRECTION('',(0.,0.,1.));
#1351=DIRECTION('',(1.,0.,0.));
#1352=DIRECTION('',(0.,0.,1.));
#1353=DIRECTION('',(1.,0.,0.));
#1354=DIRECTION('',(0.,0.,1.));
#1355=DIRECTION('',(1.,0.,0.));
#1356=DIRECTION('',(0.,0.,1.));
#1357=DIRECTION('',(1.,0.,0.));
#1358=DIRECTION('',(0.,0.,1.));
#1359=DIRECTION('',(1.,0.,0.));
#1360=DIRECTION('',(0.,0.,1.));
#1361=DIRECTION('',(1.,0.,0.));
#1362=DIRECTION('',(0.,0.,1.));
#1363=DIRECTION('',(1.,0.,0.));
#1364=DIRECTION('',(0.,0.,1.));
#1365=DIRECTION('',(1.,0.,0.));
#1366=DIRECTION('',(0.,0.,1.));
#1367=DIRECTION('',(1.,0.,0.));
#1368=DIRECTION('',(0.,0.,1.));
#1369=DIRECTION('',(1.,0.,0.));
#1370=DIRECTION('',(0.,0.,1.));
#1371=DIRECTION('',(1.,0.,0.));
#1372=DIRECTION('',(0.,0.,-1.));
#1373=DIRECTION('',(-1.,0.,0.));
#1374=DIRECTION('',(0.,0.,1.));
#1375=DIRECTION('',(1.,0.,0.));
#1376=DIRECTION('',(0.,0.,1.));
#1377=DIRECTION('',(1.,0.,0.));
#1378=DIRECTION('',(0.,0.,1.));
#1379=DIRECTION('',(1.,0.,0.));
#1380=DIRECTION('',(0.,0.,-1.));
#1381=DIRECTION('',(-1.,0.,0.));
#1382=DIRECTION('',(0.,0.,1.));
#1383=DIRECTION('',(1.,0.,0.));
#1384=DIRECTION('',(0.,0.,1.));
#1385=DIRECTION('',(1.,0.,0.));
#1386=DIRECTION('',(0.,0.,1.));
#1387=DIRECTION('',(1.,0.,0.));
#1388=DIRECTION('',(0.,0.,-1.));
#1389=DIRECTION('',(-1.,0.,0.));
#1390=DIRECTION('',(0.,0.,1.));
#1391=DIRECTION('',(1.,0.,0.));
#1392=DIRECTION('',(0.,0.,1.));
#1393=DIRECTION('',(1.,0.,0.));
#1394=DIRECTION('',(0.,0.,-1.));
#1395=DIRECTION('',(-1.,0.,0.));
#1396=DIRECTION('',(0.,0.,1.));
#1397=DIRECTION('',(1.,0.,0.));
#1398=DIRECTION('',(0.,0.,1.));
#1399=DIRECTION('',(1.,0.,0.));
#1400=DIRECTION('',(0.,0.,1.));
#1401=DIRECTION('',(1.,0.,0.));
#1402=DIRECTION('',(0.,0.,1.));
#1403=DIRECTION('',(1.,0.,0.));
#1404=DIRECTION('',(0.,0.,1.));
#1405=DIRECTION('',(1.,0.,0.));
#1406=DIRECTION('',(0.,-1.,0.));
#1407=DIRECTION('',(0.,0.,-1.));
#1408=DIRECTION('',(0.,-1.,0.));
#1409=DIRECTION('',(0.,0.,-1.));
#1410=DIRECTION('',(-1.,0.,0.));
#1411=DIRECTION('',(0.,0.,1.));
#1412=DIRECTION('',(-1.,0.,0.));
#1413=DIRECTION('',(0.,0.,1.));
#1414=DIRECTION('',(0.,0.,1.));
#1415=DIRECTION('',(1.,0.,0.));
#1416=DIRECTION('',(0.,1.,0.));
#1417=DIRECTION('',(0.,0.,1.));
#1418=DIRECTION('',(0.,-1.,0.));
#1419=DIRECTION('',(0.,0.,-1.));
#1420=DIRECTION('',(0.,0.,1.));
#1421=DIRECTION('',(1.,0.,0.));
#1422=DIRECTION('',(0.,0.,-1.));
#1423=DIRECTION('',(-1.,0.,0.));
#1424=DIRECTION('',(1.,0.,0.));
#1425=DIRECTION('',(0.,0.,-1.));
#1426=DIRECTION('',(1.,0.,0.));
#1427=DIRECTION('',(0.,0.,-1.));
#1428=DIRECTION('',(0.,1.,0.));
#1429=DIRECTION('',(0.,0.,1.));
#1430=DIRECTION('',(0.,-1.,0.));
#1431=DIRECTION('',(0.,0.,-1.));
#1432=DIRECTION('',(-1.,0.,0.));
#1433=DIRECTION('',(0.,0.,1.));
#1434=DIRECTION('',(-1.,0.,0.));
#1435=DIRECTION('',(0.,0.,1.));
#1436=DIRECTION('',(0.,0.,1.));
#1437=DIRECTION('',(1.,0.,0.));
#1438=DIRECTION('',(0.,0.,1.));
#1439=DIRECTION('',(1.,0.,0.));
#1440=DIRECTION('',(-1.,0.,0.));
#1441=DIRECTION('',(0.,0.,1.));
#1442=DIRECTION('',(1.,0.,0.));
#1443=DIRECTION('',(0.,0.,-1.));
#1444=DIRECTION('',(0.,0.,-1.));
#1445=DIRECTION('',(-1.,0.,0.));
#1446=DIRECTION('',(0.,0.,-1.));
#1447=DIRECTION('',(-1.,0.,0.));
#1448=DIRECTION('',(0.,-1.,0.));
#1449=DIRECTION('',(0.,0.,-1.));
#1450=DIRECTION('',(0.,-1.,0.));
#1451=DIRECTION('',(0.,0.,-1.));
#1452=DIRECTION('',(0.,-1.,0.));
#1453=DIRECTION('',(0.,0.,-1.));
#1454=DIRECTION('',(0.,0.,1.));
#1455=DIRECTION('',(1.,0.,0.));
#1456=DIRECTION('',(0.,0.,1.));
#1457=DIRECTION('',(1.,0.,0.));
#1458=DIRECTION('',(0.,-1.,0.));
#1459=DIRECTION('',(0.,0.,-1.));
#1460=DIRECTION('',(-1.,0.,0.));
#1461=DIRECTION('',(-1.,0.,0.));
#1462=DIRECTION('',(0.,0.,1.));
#1463=DIRECTION('',(-1.,0.,0.));
#1464=DIRECTION('',(0.,0.,-1.));
#1465=DIRECTION('',(-1.,0.,0.));
#1466=DIRECTION('',(-1.,0.,0.));
#1467=DIRECTION('',(-1.,0.,0.));
#1468=DIRECTION('',(0.,0.,1.));
#1469=DIRECTION('',(-1.,0.,0.));
#1470=DIRECTION('',(0.,-1.,0.));
#1471=DIRECTION('',(0.,0.,-1.));
#1472=DIRECTION('',(0.,0.,1.));
#1473=DIRECTION('',(1.,0.,0.));
#1474=DIRECTION('',(0.,0.,1.));
#1475=DIRECTION('',(1.,0.,0.));
#1476=DIRECTION('',(0.,0.,-1.));
#1477=DIRECTION('',(-1.,0.,0.));
#1478=DIRECTION('',(0.,0.,1.));
#1479=DIRECTION('',(1.,0.,0.));
#1480=DIRECTION('',(0.,0.,-1.));
#1481=DIRECTION('',(-1.,0.,0.));
#1482=DIRECTION('',(0.,0.,1.));
#1483=DIRECTION('',(1.,0.,0.));
#1484=DIRECTION('',(0.,0.,1.));
#1485=DIRECTION('',(1.,0.,0.));
#1486=DIRECTION('',(0.,0.,1.));
#1487=DIRECTION('',(1.,0.,0.));
#1488=DIRECTION('',(0.,0.,1.));
#1489=DIRECTION('',(1.,0.,0.));
#1490=DIRECTION('',(0.,0.,1.));
#1491=DIRECTION('',(1.,0.,0.));
#1492=CARTESIAN_POINT('',(0.,0.,0.));
#1493=CARTESIAN_POINT('',(0.,0.,0.055));
#1494=CARTESIAN_POINT('',(-0.013575,1.2120493535955E-18,0.055));
#1495=CARTESIAN_POINT('',(-0.003175,1.2120493535955E-18,0.055));
#1496=CARTESIAN_POINT('',(0.013575,-1.16902098677563E-18,0.055));
#1497=CARTESIAN_POINT('',(0.023975,-1.16902098677563E-18,0.055));
#1498=CARTESIAN_POINT('',(0.,1.86605556020079E-18,0.055));
#1499=CARTESIAN_POINT('',(0.029975,1.86605556020079E-18,0.055));
#1500=CARTESIAN_POINT('',(-2.75545529808154E-19,0.0196,0.055));
#1501=CARTESIAN_POINT('',(-0.000925,0.0240039045175843,0.055));
#1502=CARTESIAN_POINT('',(-0.000925,0.0151960954824156,0.055));
#1503=CARTESIAN_POINT('',(-0.000925,0.,0.055));
#1504=CARTESIAN_POINT('',(-0.000925,0.0264,0.055));
#1505=CARTESIAN_POINT('',(0.000925,0.0264,0.055));
#1506=CARTESIAN_POINT('',(0.000925,0.0264,0.055));
#1507=CARTESIAN_POINT('',(0.000925,0.,0.055));
#1508=CARTESIAN_POINT('',(0.000925,0.0240039045175843,0.055));
#1509=CARTESIAN_POINT('',(-2.75545529808154E-19,0.0196,0.055));
#1510=CARTESIAN_POINT('',(0.000925,0.0151960954824156,0.055));
#1511=CARTESIAN_POINT('',(0.000925,0.,0.055));
#1512=CARTESIAN_POINT('',(0.000925,-0.0264,0.055));
#1513=CARTESIAN_POINT('',(0.000925,-0.0264,0.055));
#1514=CARTESIAN_POINT('',(-0.000925,-0.0264,0.055));
#1515=CARTESIAN_POINT('',(-0.000925,0.,0.055));
#1516=CARTESIAN_POINT('',(0.000925,0.,0.0635));
#1517=CARTESIAN_POINT('',(0.000925,0.0151960954824156,0.06525));
#1518=CARTESIAN_POINT('',(0.000925,0.0151960954824156,0.06475));
#1519=CARTESIAN_POINT('',(0.000925,0.0151960954824156,0.06475));
#1520=CARTESIAN_POINT('',(0.000925,0.0151960954824156,0.0650174665742703));
#1521=CARTESIAN_POINT('',(0.000925,0.0154411358316358,0.06525));
#1522=CARTESIAN_POINT('',(0.000925,0.0157084225563404,0.06525));
#1523=CARTESIAN_POINT('',(0.000925,0.0157084225563404,0.06525));
#1524=CARTESIAN_POINT('',(0.000925,0.,0.06525));
#1525=CARTESIAN_POINT('',(0.000925,0.0234915774436596,0.06525));
#1526=CARTESIAN_POINT('',(0.000925,0.0234915774436596,0.06525));
#1527=CARTESIAN_POINT('',(0.000925,0.0237589638003842,0.06525));
#1528=CARTESIAN_POINT('',(0.000925,0.0240039045175853,0.0650175864046695));
#1529=CARTESIAN_POINT('',(0.000925,0.0240039045175853,0.06475));
#1530=CARTESIAN_POINT('',(0.000925,0.0240039045175843,0.06475));
#1531=CARTESIAN_POINT('',(0.000925,0.0240039045175843,0.06525));
#1532=CARTESIAN_POINT('',(0.000925,0.0264,0.05985));
#1533=CARTESIAN_POINT('',(0.000925,0.0264,0.0647));
#1534=CARTESIAN_POINT('',(0.000925,0.0191,0.0647));
#1535=CARTESIAN_POINT('',(0.000925,0.0191,0.072));
#1536=CARTESIAN_POINT('',(0.000925,-3.46944695195361E-18,0.072));
#1537=CARTESIAN_POINT('',(0.000925,-0.0191,0.072));
#1538=CARTESIAN_POINT('',(0.000925,-0.0191,0.0647));
#1539=CARTESIAN_POINT('',(0.000925,-0.0264,0.0647));
#1540=CARTESIAN_POINT('',(0.000925,-0.0264,0.05985));
#1541=CARTESIAN_POINT('',(-0.000925,0.,0.0635));
#1542=CARTESIAN_POINT('',(-0.000925,0.0151960954824156,0.06525));
#1543=CARTESIAN_POINT('',(-0.000925,0.0151960954824156,0.06475));
#1544=CARTESIAN_POINT('',(-0.000925,-0.0264,0.05985));
#1545=CARTESIAN_POINT('',(-0.000925,-0.0264,0.0647));
#1546=CARTESIAN_POINT('',(-0.000925,-0.0191,0.0647));
#1547=CARTESIAN_POINT('',(-0.000925,-0.0191,0.072));
#1548=CARTESIAN_POINT('',(-0.000925,-3.46944695195361E-18,0.072));
#1549=CARTESIAN_POINT('',(-0.000925,0.0191,0.072));
#1550=CARTESIAN_POINT('',(-0.000925,0.0191,0.0647));
#1551=CARTESIAN_POINT('',(-0.000925,0.0264,0.0647));
#1552=CARTESIAN_POINT('',(-0.000925,0.0264,0.05985));
#1553=CARTESIAN_POINT('',(-0.000925,0.0240039045175843,0.06525));
#1554=CARTESIAN_POINT('',(-0.000925,0.0240039045175843,0.06475));
#1555=CARTESIAN_POINT('',(-0.000925,0.0240039045175844,0.06475));
#1556=CARTESIAN_POINT('',(-0.000925,0.0240039045175844,0.0650174665742703));
#1557=CARTESIAN_POINT('',(-0.000925,0.0237588641683642,0.06525));
#1558=CARTESIAN_POINT('',(-0.000925,0.0234915774436596,0.06525));
#1559=CARTESIAN_POINT('',(-0.000925,0.0234915774436596,0.06525));
#1560=CARTESIAN_POINT('',(-0.000925,0.,0.06525));
#1561=CARTESIAN_POINT('',(-0.000925,0.0157084225563404,0.06525));
#1562=CARTESIAN_POINT('',(-0.000925,0.0157084225563405,0.06525));
#1563=CARTESIAN_POINT('',(-0.000925,0.0154410361996159,0.06525));
#1564=CARTESIAN_POINT('',(-0.000925,0.0151960954824147,0.0650175864046695));
#1565=CARTESIAN_POINT('',(-0.000925,0.0151960954824147,0.06475));
#1566=CARTESIAN_POINT('',(1.7347234759768E-18,-5.20417042793042E-18,0.0375));
#1567=CARTESIAN_POINT('',(0.01855,-0.0180750518671455,0.0129));
#1568=CARTESIAN_POINT('',(0.01855,-0.0180750518671455,0.0129));
#1569=CARTESIAN_POINT('',(0.01855,-0.0180750518671455,0.));
#1570=CARTESIAN_POINT('',(1.7347234759768E-18,5.20417042793042E-18,0.0129));
#1571=CARTESIAN_POINT('',(0.01855,0.0180750518671456,0.0129));
#1572=CARTESIAN_POINT('',(0.01855,0.0180750518671455,0.0129));
#1573=CARTESIAN_POINT('',(0.01855,0.0180750518671455,0.));
#1574=CARTESIAN_POINT('',(1.7347234759768E-18,-5.20417042793042E-18,0.));
#1575=CARTESIAN_POINT('',(-0.0178148814197569,0.0188,0.));
#1576=CARTESIAN_POINT('',(-0.0178148814197569,0.0188,0.0129));
#1577=CARTESIAN_POINT('',(-0.0178148814197569,0.0188,0.0129));
#1578=CARTESIAN_POINT('',(1.7347234759768E-18,-5.20417042793042E-18,0.0129));
#1579=CARTESIAN_POINT('',(-0.0178148814197569,-0.0188,0.0129));
#1580=CARTESIAN_POINT('',(-0.0178148814197569,-0.0188,0.0129));
#1581=CARTESIAN_POINT('',(-0.0178148814197569,-0.0188,0.));
#1582=CARTESIAN_POINT('',(1.7347234759768E-18,-5.20417042793042E-18,0.));
#1583=CARTESIAN_POINT('',(0.020875,-0.0153311570013486,0.0375));
#1584=CARTESIAN_POINT('',(0.020875,-0.0153311570013486,0.015));
#1585=CARTESIAN_POINT('',(0.020875,-0.0153311570013486,0.0375));
#1586=CARTESIAN_POINT('',(0.020875,-0.0153311570013486,0.015));
#1587=CARTESIAN_POINT('',(0.020875,-0.0153311570013486,0.0148210256211758));
#1588=CARTESIAN_POINT('',(0.0206938379976332,-0.0155777183540317,0.0145575749626074));
#1589=CARTESIAN_POINT('',(0.0204841010811563,-0.0158506414190793,0.0145));
#1590=CARTESIAN_POINT('',(0.020375,-0.0159896646306294,0.0145));
#1591=CARTESIAN_POINT('',(0.020375,-0.0159896646306294,0.0145));
#1592=CARTESIAN_POINT('',(1.7347234759768E-18,-5.20417042793042E-18,0.0145));
#1593=CARTESIAN_POINT('',(-0.020375,-0.0159896646306294,0.0145));
#1594=CARTESIAN_POINT('',(-0.020375,-0.0159896646306294,0.0145));
#1595=CARTESIAN_POINT('',(-0.020484180964841,-0.0158505396264455,0.0145));
#1596=CARTESIAN_POINT('',(-0.0206928457302186,-0.0155790333321906,0.0145568166966228));
#1597=CARTESIAN_POINT('',(-0.020875,-0.0153311570013486,0.0148210255433493));
#1598=CARTESIAN_POINT('',(-0.020875,-0.0153311570013486,0.015));
#1599=CARTESIAN_POINT('',(-0.020875,-0.0153311570013486,0.015));
#1600=CARTESIAN_POINT('',(-0.020875,-0.0153311570013486,0.0375));
#1601=CARTESIAN_POINT('',(-0.020875,-0.0153311570013486,0.0375));
#1602=CARTESIAN_POINT('',(1.7347234759768E-18,-5.20417042793042E-18,0.0375));
#1603=CARTESIAN_POINT('',(0.,1.86605556020079E-18,0.055));
#1604=CARTESIAN_POINT('',(0.,1.86605556020079E-18,0.0545));
#1605=CARTESIAN_POINT('',(0.030475,1.86605556020079E-18,0.0545));
#1606=CARTESIAN_POINT('',(0.020875,-0.0222027025382047,0.055));
#1607=CARTESIAN_POINT('',(0.020875,-0.0222027025382047,0.038));
#1608=CARTESIAN_POINT('',(0.020875,-0.0222027025382047,0.0438));
#1609=CARTESIAN_POINT('',(0.,1.86605556020079E-18,0.038));
#1610=CARTESIAN_POINT('',(-0.020875,-0.0222027025382047,0.038));
#1611=CARTESIAN_POINT('',(-0.020875,-0.0222027025382047,0.055));
#1612=CARTESIAN_POINT('',(-0.020875,-0.0222027025382047,0.0438));
#1613=CARTESIAN_POINT('',(-0.020875,-0.0222027025382047,0.0438));
#1614=CARTESIAN_POINT('',(-0.020875,-0.0222027025382047,0.043957182893772));
#1615=CARTESIAN_POINT('',(-0.0207205978623943,-0.0223481538948004,0.0442282707223619));
#1616=CARTESIAN_POINT('',(-0.0204909533206709,-0.0225581641578837,0.0443));
#1617=CARTESIAN_POINT('',(-0.020375,-0.0226624138167143,0.0443));
#1618=CARTESIAN_POINT('',(-0.020375,-0.0226624138167143,0.0443));
#1619=CARTESIAN_POINT('',(0.,1.86605556020079E-18,0.0443));
#1620=CARTESIAN_POINT('',(0.020375,-0.0226624138167143,0.0443));
#1621=CARTESIAN_POINT('',(0.020375,-0.0226624138167143,0.0443));
#1622=CARTESIAN_POINT('',(0.0204909496899556,-0.0225581674221355,0.0443));
#1623=CARTESIAN_POINT('',(0.0207201214555243,-0.0223485949302959,0.0442286990122193));
#1624=CARTESIAN_POINT('',(0.020875,-0.0222027025382047,0.043957151707031));
#1625=CARTESIAN_POINT('',(0.020875,-0.0222027025382047,0.0438));
#1626=CARTESIAN_POINT('',(0.,0.,0.0375));
#1627=CARTESIAN_POINT('',(-0.020875,0.,0.0375));
#1628=CARTESIAN_POINT('',(-0.020875,-0.0215112761127739,0.0375));
#1629=CARTESIAN_POINT('',(0.,1.86605556020079E-18,0.0375));
#1630=CARTESIAN_POINT('',(0.020875,-0.0215112761127739,0.0375));
#1631=CARTESIAN_POINT('',(0.020875,0.,0.0375));
#1632=CARTESIAN_POINT('',(0.,0.,0.));
#1633=CARTESIAN_POINT('',(0.0268406355138576,0.0124512419684769,0.));
#1634=CARTESIAN_POINT('',(0.0351312710277152,0.00682743206980824,0.));
#1635=CARTESIAN_POINT('',(0.0305,-3.46944695195361E-18,0.));
#1636=CARTESIAN_POINT('',(0.0351312710277152,-0.00682743206980823,0.));
#1637=CARTESIAN_POINT('',(0.0268406355138576,-0.0124512419684769,0.));
#1638=CARTESIAN_POINT('',(-0.0265032992099665,-0.0127930182577706,0.));
#1639=CARTESIAN_POINT('',(-0.035191717000176,-0.00678603651554124,0.));
#1640=CARTESIAN_POINT('',(-0.0305,4.33680868994202E-19,0.));
#1641=CARTESIAN_POINT('',(-0.035191717000176,0.00678603651554125,0.));
#1642=CARTESIAN_POINT('',(-0.0265032992099665,0.0127930182577706,0.));
#1643=CARTESIAN_POINT('',(-0.0338,2.02066721859313E-19,0.));
#1644=CARTESIAN_POINT('',(-0.0305,2.02066721859313E-19,0.));
#1645=CARTESIAN_POINT('',(0.0338,1.63286434649086E-19,0.));
#1646=CARTESIAN_POINT('',(0.0371,1.63286434649086E-19,0.));
#1647=CARTESIAN_POINT('',(-0.0265032992099665,0.0127930182577706,0.0129));
#1648=CARTESIAN_POINT('',(-0.035191717000176,0.00678603651554125,0.0129));
#1649=CARTESIAN_POINT('',(-0.035191717000176,0.00678603651554125,0.0129));
#1650=CARTESIAN_POINT('',(-0.0265032992099665,0.0127930182577706,0.0129));
#1651=CARTESIAN_POINT('',(-0.0305,4.33680868994202E-19,0.0129));
#1652=CARTESIAN_POINT('',(-0.035191717000176,-0.00678603651554124,0.0129));
#1653=CARTESIAN_POINT('',(-0.035191717000176,-0.00678603651554124,0.0129));
#1654=CARTESIAN_POINT('',(-0.0305,4.33680868994202E-19,0.0129));
#1655=CARTESIAN_POINT('',(-0.0338,2.02066721859313E-19,0.0129));
#1656=CARTESIAN_POINT('',(-0.0338,2.02066721859313E-19,0.0129));
#1657=CARTESIAN_POINT('',(-0.0305,2.02066721859313E-19,0.0129));
#1658=CARTESIAN_POINT('',(-0.0265032992099665,-0.0127930182577706,0.0129));
#1659=CARTESIAN_POINT('',(-0.0265032992099665,-0.0127930182577706,0.0129));
#1660=CARTESIAN_POINT('',(0.,0.,0.0129));
#1661=CARTESIAN_POINT('',(0.0268406355138576,0.0124512419684769,0.0129));
#1662=CARTESIAN_POINT('',(0.0268406355138576,0.0124512419684769,0.0129));
#1663=CARTESIAN_POINT('',(0.0351312710277152,0.00682743206980824,0.0129));
#1664=CARTESIAN_POINT('',(0.0351312710277152,0.00682743206980824,0.0129));
#1665=CARTESIAN_POINT('',(0.0268406355138576,-0.0124512419684769,0.0129));
#1666=CARTESIAN_POINT('',(0.0351312710277152,-0.00682743206980823,0.0129));
#1667=CARTESIAN_POINT('',(0.0351312710277152,-0.00682743206980823,0.0129));
#1668=CARTESIAN_POINT('',(0.0268406355138576,-0.0124512419684769,0.0129));
#1669=CARTESIAN_POINT('',(0.0305,-3.46944695195361E-18,0.0129));
#1670=CARTESIAN_POINT('',(0.0305,-3.46944695195361E-18,0.0129));
#1671=CARTESIAN_POINT('',(0.0338,1.63286434649086E-19,0.0129));
#1672=CARTESIAN_POINT('',(0.0338,1.63286434649086E-19,0.0129));
#1673=CARTESIAN_POINT('',(0.0371,1.63286434649086E-19,0.0129));
#1674=CARTESIAN_POINT('',(0.,0.,0.0129));
#1675=CARTESIAN_POINT('',(0.020875,-0.03485,0.0294));
#1676=CARTESIAN_POINT('',(0.020875,-0.03435,0.0145));
#1677=CARTESIAN_POINT('',(0.020875,-0.03435,0.0438));
#1678=CARTESIAN_POINT('',(0.020875,-0.03435,0.015));
#1679=CARTESIAN_POINT('',(0.020875,-0.0153311570013486,0.015));
#1680=CARTESIAN_POINT('',(0.020875,-0.0215112761127739,0.0375));
#1681=CARTESIAN_POINT('',(0.020875,-0.0216690949228996,0.0375));
#1682=CARTESIAN_POINT('',(0.020875,-0.0219833298048973,0.0375668568634003));
#1683=CARTESIAN_POINT('',(0.020875,-0.0222027025382047,0.0378408125258102));
#1684=CARTESIAN_POINT('',(0.020875,-0.0222027025382047,0.038));
#1685=CARTESIAN_POINT('',(0.020875,-0.03485,0.0438));
#1686=CARTESIAN_POINT('',(-0.020875,-0.03485,0.0294));
#1687=CARTESIAN_POINT('',(-0.020875,-0.03485,0.015));
#1688=CARTESIAN_POINT('',(-0.020875,-0.03435,0.015));
#1689=CARTESIAN_POINT('',(-0.020875,-0.03435,0.0294));
#1690=CARTESIAN_POINT('',(-0.020875,-0.03435,0.0438));
#1691=CARTESIAN_POINT('',(-0.020875,-0.0222027025382047,0.0438));
#1692=CARTESIAN_POINT('',(-0.020875,-0.0222027025382047,0.038));
#1693=CARTESIAN_POINT('',(-0.020875,-0.0222027025382046,0.037840872217395));
#1694=CARTESIAN_POINT('',(-0.020875,-0.0219847504231441,0.0375676903167398));
#1695=CARTESIAN_POINT('',(-0.020875,-0.0216690595146734,0.0375));
#1696=CARTESIAN_POINT('',(-0.020875,-0.0215112761127739,0.0375));
#1697=CARTESIAN_POINT('',(0.,-0.03485,0.0145));
#1698=CARTESIAN_POINT('',(0.020375,-0.03485,0.0145));
#1699=CARTESIAN_POINT('',(0.020375,-0.03435,0.0145));
#1700=CARTESIAN_POINT('',(0.,-0.03435,0.0145));
#1701=CARTESIAN_POINT('',(-0.020375,-0.03435,0.0145));
#1702=CARTESIAN_POINT('',(-0.020375,-0.03485,0.0145));
#1703=CARTESIAN_POINT('',(0.,-0.03485,0.0443));
#1704=CARTESIAN_POINT('',(0.020875,-0.03435,0.0443));
#1705=CARTESIAN_POINT('',(-0.020375,-0.03435,0.0443));
#1706=CARTESIAN_POINT('',(0.020375,-0.03435,0.0443));
#1707=CARTESIAN_POINT('',(0.020375,-0.03485,0.0443));
#1708=CARTESIAN_POINT('',(-0.020375,-0.03485,0.0443));
#1709=CARTESIAN_POINT('',(0.,-0.03485,0.0294));
#1710=CARTESIAN_POINT('',(0.,-0.03485,0.015));
#1711=CARTESIAN_POINT('',(-0.020375,-0.03485,0.015));
#1712=CARTESIAN_POINT('',(0.020375,-0.03485,0.015));
#1713=CARTESIAN_POINT('',(0.020375,-0.03485,0.0443));
#1714=CARTESIAN_POINT('',(0.020375,-0.03485,0.0438));
#1715=CARTESIAN_POINT('',(-0.020875,-0.03485,0.0438));
#1716=CARTESIAN_POINT('',(-0.020375,-0.03485,0.0438));
#1717=CARTESIAN_POINT('',(-0.020375,-0.03485,0.0294));
#1718=CARTESIAN_POINT('',(0.013575,-1.26086949671168E-18,0.0545));
#1719=CARTESIAN_POINT('',(0.013575,-1.26086949671168E-18,0.056));
#1720=CARTESIAN_POINT('',(0.021975,-1.26086949671168E-18,0.056));
#1721=CARTESIAN_POINT('',(0.013575,-1.26086949671168E-18,0.0545));
#1722=CARTESIAN_POINT('',(0.021975,-1.26086949671168E-18,0.0545));
#1723=CARTESIAN_POINT('',(0.,6.93889390390723E-18,0.0545));
#1724=CARTESIAN_POINT('',(0.013575,-1.16902098677563E-18,0.0545));
#1725=CARTESIAN_POINT('',(0.023475,-1.16902098677563E-18,0.0545));
#1726=CARTESIAN_POINT('',(-0.013575,1.12020084365944E-18,0.0545));
#1727=CARTESIAN_POINT('',(-0.013575,1.12020084365944E-18,0.0545));
#1728=CARTESIAN_POINT('',(-0.005175,1.12020084365944E-18,0.0545));
#1729=CARTESIAN_POINT('',(-0.013575,1.12020084365944E-18,0.0565));
#1730=CARTESIAN_POINT('',(-0.005175,1.12020084365944E-18,0.0565));
#1731=CARTESIAN_POINT('',(0.,6.93889390390723E-18,0.0545));
#1732=CARTESIAN_POINT('',(-0.013575,1.2120493535955E-18,0.0545));
#1733=CARTESIAN_POINT('',(-0.003675,1.2120493535955E-18,0.0545));
#1734=CARTESIAN_POINT('',(0.,0.,0.0565));
#1735=CARTESIAN_POINT('',(-0.013575,1.43860901143776E-18,0.0565));
#1736=CARTESIAN_POINT('',(-0.008375,1.43860901143776E-18,0.0565));
#1737=CARTESIAN_POINT('',(0.,0.,0.0565));
#1738=CARTESIAN_POINT('',(0.013575,-1.26086949671168E-18,0.0565));
#1739=CARTESIAN_POINT('',(0.021475,-1.26086949671168E-18,0.0565));
#1740=CARTESIAN_POINT('',(0.013575,-9.42461328933373E-19,0.0565));
#1741=CARTESIAN_POINT('',(0.018775,-9.42461328933373E-19,0.0565));
#1742=CARTESIAN_POINT('',(0.013575,-9.42461328933373E-19,0.056));
#1743=CARTESIAN_POINT('',(0.013575,-9.42461328933373E-19,0.056));
#1744=CARTESIAN_POINT('',(0.018775,-9.42461328933373E-19,0.056));
#1745=CARTESIAN_POINT('',(3.46944695195361E-18,3.46944695195361E-18,0.056));
#1746=CARTESIAN_POINT('',(0.013575,-6.85285501112429E-19,0.056));
#1747=CARTESIAN_POINT('',(0.017775,-6.85285501112429E-19,0.056));
#1748=CARTESIAN_POINT('',(-0.013575,1.43860901143776E-18,0.056));
#1749=CARTESIAN_POINT('',(-0.013575,1.43860901143776E-18,0.056));
#1750=CARTESIAN_POINT('',(-0.008375,1.43860901143776E-18,0.056));
#1751=CARTESIAN_POINT('',(3.46944695195361E-18,3.46944695195361E-18,0.056));
#1752=CARTESIAN_POINT('',(-0.013575,1.6957848392587E-18,0.056));
#1753=CARTESIAN_POINT('',(-0.009375,1.6957848392587E-18,0.056));
#1754=CARTESIAN_POINT('',(-0.013575,1.6957848392587E-18,0.0566));
#1755=CARTESIAN_POINT('',(-0.013575,1.6957848392587E-18,0.0566));
#1756=CARTESIAN_POINT('',(-0.009375,1.6957848392587E-18,0.0566));
#1757=CARTESIAN_POINT('',(3.46944695195361E-18,0.,0.0566));
#1758=CARTESIAN_POINT('',(-0.013575,1.8794818591308E-18,0.0566));
#1759=CARTESIAN_POINT('',(-0.010575,1.8794818591308E-18,0.0566));
#1760=CARTESIAN_POINT('',(0.013575,-6.85285501112429E-19,0.0566));
#1761=CARTESIAN_POINT('',(0.013575,-6.85285501112429E-19,0.0566));
#1762=CARTESIAN_POINT('',(0.017775,-6.85285501112429E-19,0.0566));
#1763=CARTESIAN_POINT('',(3.46944695195361E-18,0.,0.0566));
#1764=CARTESIAN_POINT('',(0.013575,-5.01588481240326E-19,0.0566));
#1765=CARTESIAN_POINT('',(0.016575,-5.01588481240326E-19,0.0566));
#1766=CARTESIAN_POINT('',(0.013575,-5.01588481240326E-19,0.0736));
#1767=CARTESIAN_POINT('',(0.013575,-5.01588481240326E-19,0.0736));
#1768=CARTESIAN_POINT('',(0.016575,-5.01588481240326E-19,0.0736));
#1769=CARTESIAN_POINT('',(-0.000599999999999993,1.7347234759768E-18,0.0736));
#1770=CARTESIAN_POINT('',(-0.013575,1.8794818591308E-18,0.0736));
#1771=CARTESIAN_POINT('',(-0.013575,1.8794818591308E-18,0.0736));
#1772=CARTESIAN_POINT('',(-0.010575,1.8794818591308E-18,0.0736));
#1773=CARTESIAN_POINT('',(-0.000599999999999993,1.7347234759768E-18,0.0736));
#1774=CARTESIAN_POINT('',(0.013575,-1.26086949671168E-18,0.056));
#1775=CARTESIAN_POINT('',(-0.013575,1.2120493535955E-18,0.0545));
#1776=CARTESIAN_POINT('',(0.013575,-1.16902098677563E-18,0.0545));
#1777=CARTESIAN_POINT('',(-0.020375,-0.03485,0.0438));
#1778=CARTESIAN_POINT('',(-0.020375,-0.03435,0.0438));
#1779=CARTESIAN_POINT('',(-0.020375,-0.03435,0.0438));
#1780=CARTESIAN_POINT('',(-0.020375,-0.03435,0.0438));
#1781=CARTESIAN_POINT('',(-0.020375,-0.03435,0.0438));
#1782=CARTESIAN_POINT('',(-0.020375,-0.03485,0.015));
#1783=CARTESIAN_POINT('',(-0.020375,-0.03435,0.015));
#1784=CARTESIAN_POINT('',(-0.020375,-0.03435,0.0294));
#1785=CARTESIAN_POINT('',(-0.020375,-0.03435,0.015));
#1786=CARTESIAN_POINT('',(0.,-0.03435,0.0438));
#1787=CARTESIAN_POINT('',(0.020375,-0.03435,0.0438));
#1788=CARTESIAN_POINT('',(0.020375,-0.03485,0.0438));
#1789=CARTESIAN_POINT('',(0.020375,-0.03435,0.0438));
#1790=CARTESIAN_POINT('',(-0.020375,-0.03435,0.015));
#1791=CARTESIAN_POINT('',(-0.020375,-0.03435,0.015));
#1792=CARTESIAN_POINT('',(0.020375,-0.03435,0.0438));
#1793=CARTESIAN_POINT('',(0.020375,-0.03435,0.0438));
#1794=CARTESIAN_POINT('',(0.,-0.03435,0.015));
#1795=CARTESIAN_POINT('',(0.020375,-0.03435,0.015));
#1796=CARTESIAN_POINT('',(0.020375,-0.03435,0.0294));
#1797=CARTESIAN_POINT('',(0.020375,-0.03435,0.015));
#1798=CARTESIAN_POINT('',(0.020375,-0.03435,0.015));
#1799=CARTESIAN_POINT('',(0.020375,-0.03435,0.015));
#1800=CARTESIAN_POINT('',(0.020375,-0.03485,0.015));
#1801=CARTESIAN_POINT('',(0.,1.86605556020079E-18,0.038));
#1802=CARTESIAN_POINT('',(0.,1.86605556020079E-18,0.0545));
#1803=CARTESIAN_POINT('',(0.000925,0.0264,0.05985));
#1804=CARTESIAN_POINT('',(0.000925,0.0264,0.0647));
#1805=CARTESIAN_POINT('',(0.000925,0.0191,0.0647));
#1806=CARTESIAN_POINT('',(0.000925,0.0191,0.072));
#1807=CARTESIAN_POINT('',(0.000925,-3.46944695195361E-18,0.072));
#1808=CARTESIAN_POINT('',(0.000925,-0.0191,0.072));
#1809=CARTESIAN_POINT('',(0.000925,-0.0191,0.0647));
#1810=CARTESIAN_POINT('',(0.000925,-0.0264,0.0647));
#1811=CARTESIAN_POINT('',(0.000925,-0.0264,0.05985));
#1812=CARTESIAN_POINT('',(0.,6.93889390390723E-18,0.06525));
#1813=CARTESIAN_POINT('',(-2.75545529808154E-19,0.0196,0.06525));
#1814=CARTESIAN_POINT('',(-2.75545529808154E-19,0.0196,0.06525));
#1815=CARTESIAN_POINT('',(-2.75545529808154E-19,0.0196,0.06475));
#1816=CARTESIAN_POINT('',(-2.75545529808154E-19,0.0196,0.06525));
#1817=CARTESIAN_POINT('',(-2.75545529808154E-19,0.0196,0.06475));
#1818=CARTESIAN_POINT('',(0.,6.93889390390723E-18,0.06525));
#1819=CARTESIAN_POINT('',(-2.75545529808154E-19,0.0196,0.06525));
#1820=CARTESIAN_POINT('',(-2.75545529808154E-19,0.0196,0.06475));
#1821=CARTESIAN_POINT('',(-2.75545529808154E-19,0.0196,0.06475));
#1822=MECHANICAL_DESIGN_GEOMETRIC_PRESENTATION_REPRESENTATION('',(#1028),
#1823);
#1823=(
GEOMETRIC_REPRESENTATION_CONTEXT(3)
GLOBAL_UNCERTAINTY_ASSIGNED_CONTEXT((#1824))
GLOBAL_UNIT_ASSIGNED_CONTEXT((#1827,#1826,#1825))
REPRESENTATION_CONTEXT('SHDC-250','TOP_LEVEL_ASSEMBLY_PART')
);
#1824=UNCERTAINTY_MEASURE_WITH_UNIT(LENGTH_MEASURE(2.E-5),#1827,
'DISTANCE_ACCURACY_VALUE','Maximum Tolerance applied to model');
#1825=(
NAMED_UNIT(*)
SI_UNIT($,.STERADIAN.)
SOLID_ANGLE_UNIT()
);
#1826=(
NAMED_UNIT(*)
PLANE_ANGLE_UNIT()
SI_UNIT($,.RADIAN.)
);
#1827=(
LENGTH_UNIT()
NAMED_UNIT(*)
SI_UNIT($,.METRE.)
);
#1828=PRODUCT_DEFINITION_SHAPE('','',#1829);
#1829=PRODUCT_DEFINITION('','',#1831,#1830);
#1830=PRODUCT_DEFINITION_CONTEXT('',#1837,'design');
#1831=PRODUCT_DEFINITION_FORMATION_WITH_SPECIFIED_SOURCE('','',#1833,
 .NOT_KNOWN.);
#1832=PRODUCT_RELATED_PRODUCT_CATEGORY('','',(#1833));
#1833=PRODUCT('SHDC-250','SHDC-250','SHDC-250',(#1835));
#1834=PRODUCT_CATEGORY('','');
#1835=PRODUCT_CONTEXT('',#1837,'mechanical');
#1836=APPLICATION_PROTOCOL_DEFINITION('international standard',
'ap242_managed_model_based_3d_engineering',2020,#1837);
#1837=APPLICATION_CONTEXT('managed model based 3d engineering');
ENDSEC;
END-ISO-10303-21;
